<svg width="322" height="322" viewBox="0 0 322 322" fill="none" xmlns="http://www.w3.org/2000/svg">
<path d="M322 246.264H0V246.425H322V246.264Z" fill="#EBEBEB"/>
<path d="M289.736 256.63H268.405V256.791H289.736V256.63Z" fill="#EBEBEB"/>
<path d="M213.305 258.378H207.707V258.539H213.305V258.378Z" fill="#EBEBEB"/>
<path d="M267.761 250.65H255.401V250.811H267.761V250.65Z" fill="#EBEBEB"/>
<path d="M61.5995 251.732H33.7832V251.893H61.5995V251.732Z" fill="#EBEBEB"/>
<path d="M71.4124 251.732H67.334V251.893H71.4124V251.732Z" fill="#EBEBEB"/>
<path d="M144.994 254.452H84.667V254.613H144.994V254.452Z" fill="#EBEBEB"/>
<path d="M152.637 217.543H28.2814C26.2548 217.543 24.6055 215.894 24.6055 213.867V39.0651C24.6055 37.0384 26.2548 35.3892 28.2814 35.3892H152.637C154.663 35.3892 156.312 37.0384 156.312 39.0651V213.867C156.312 215.894 154.663 217.543 152.637 217.543ZM28.2814 35.5508C26.343 35.5508 24.7665 37.1273 24.7665 39.0658V213.868C24.7665 215.806 26.343 217.383 28.2814 217.383H152.637C154.575 217.383 156.151 215.806 156.151 213.868V39.0651C156.151 37.1273 154.575 35.5502 152.637 35.5502L28.2814 35.5508Z" fill="#F4F4F4"/>
<path d="M291.932 217.543H167.577C165.55 217.543 163.901 215.894 163.901 213.867V39.0651C163.901 37.0384 165.551 35.3892 167.577 35.3892H291.932C293.959 35.3892 295.608 37.0384 295.608 39.0651V213.867C295.608 215.894 293.959 217.543 291.932 217.543ZM167.577 35.5508C165.639 35.5508 164.062 37.1273 164.062 39.0658V213.868C164.062 215.806 165.639 217.383 167.577 217.383H291.932C293.87 217.383 295.447 215.806 295.447 213.868V39.0651C295.447 37.1273 293.87 35.5502 291.932 35.5502L167.577 35.5508Z" fill="#F4F4F4"/>
<path d="M163.066 101.633C162.051 96.7369 160.111 92.1851 157.458 88.1427L162.289 82.3081L151.962 71.9809L146.128 76.8109C142.085 74.1589 137.533 72.2179 132.638 71.2036L131.93 63.6836H117.325L116.617 71.2036C111.722 72.2185 107.169 74.1589 103.128 76.8109L97.2931 71.9809L86.9659 82.3081L91.7959 88.1427C89.1433 92.1845 87.2029 96.7362 86.188 101.632L78.668 102.341V116.944L86.188 117.653C87.2035 122.548 89.1433 127.1 91.7959 131.142L86.9659 136.977L97.2931 147.304L103.128 142.473C107.169 145.127 111.722 147.066 116.617 148.082L117.325 155.602H131.93L132.638 148.083C137.533 147.068 142.085 145.128 146.128 142.474L151.962 147.304L162.289 136.977L157.458 131.143C160.111 127.1 162.051 122.549 163.066 117.654L170.586 116.945V102.342L163.066 101.633ZM144.397 109.643C144.397 120.562 135.545 129.414 124.626 129.414C113.707 129.414 104.856 120.562 104.856 109.643C104.856 98.7243 113.707 89.8725 124.626 89.8725C135.546 89.8725 144.397 98.7243 144.397 109.643Z" fill="#E0E0E0"/>
<path d="M204.953 171.723L205.461 177.127H215.955L216.463 171.724C219.981 170.995 223.251 169.601 226.156 167.694L230.348 171.165L237.768 163.745L234.298 159.553C236.205 156.648 237.598 153.378 238.328 149.861L243.73 149.352V138.859L238.328 138.35C237.598 134.832 236.205 131.561 234.298 128.658L237.768 124.466L230.348 117.045L226.156 120.516C223.251 118.611 219.981 117.216 216.463 116.486L215.955 111.085L205.461 111.083L204.953 116.487C201.435 117.217 198.165 118.611 195.26 120.516L191.068 117.046L183.648 124.466L187.118 128.659C185.212 131.563 183.818 134.833 183.089 138.35L177.686 138.86V149.353L183.089 149.862C183.818 153.378 185.212 156.65 187.118 159.554L183.647 163.746L191.067 171.167L195.259 167.696C198.165 169.601 201.435 170.995 204.953 171.723ZM210.707 158.311C202.863 158.311 196.503 151.95 196.503 144.105C196.503 136.26 202.863 129.901 210.707 129.901C218.553 129.901 224.913 136.26 224.913 144.105C224.913 151.95 218.553 158.311 210.707 158.311Z" fill="#E0E0E0"/>
<path d="M71.1686 223.419L71.4281 226.175H76.7798L77.0386 223.42C78.8328 223.047 80.5008 222.336 81.982 221.365L84.1201 223.135L87.9042 219.351L86.1339 217.213C87.1063 215.732 87.8166 214.063 88.1895 212.27L90.9445 212.011V206.659L88.1895 206.399C87.8173 204.605 87.1063 202.937 86.1339 201.457L87.9042 199.319L84.1201 195.534L81.982 197.304C80.5008 196.332 78.8328 195.621 77.0386 195.249L76.7798 192.495L71.4281 192.494L71.1686 195.25C69.375 195.622 67.7071 196.333 66.2252 197.305L64.0878 195.535L60.3037 199.318L62.0734 201.456C61.1016 202.937 60.3906 204.605 60.0184 206.399L57.2627 206.658V212.01L60.0184 212.269C60.39 214.063 61.1009 215.731 62.0734 217.212L60.3037 219.35L64.0878 223.134L66.2252 221.364C67.7064 222.336 69.3744 223.047 71.1686 223.419ZM74.1033 216.578C70.1028 216.578 66.8589 213.335 66.8589 209.334C66.8589 205.334 70.1028 202.09 74.1033 202.09C78.1045 202.09 81.3477 205.333 81.3477 209.334C81.3477 213.335 78.1051 216.578 74.1033 216.578Z" fill="#F0F0F0"/>
<path d="M263.556 210.047L263.77 212.315H268.174L268.387 210.047C269.864 209.741 271.236 209.156 272.455 208.356L274.215 209.813L277.329 206.699L275.872 204.939C276.673 203.72 277.258 202.347 277.564 200.871L279.832 200.657V196.253L277.563 196.039C277.258 194.562 276.672 193.19 275.872 191.971L277.328 190.212L274.214 187.097L272.455 188.554C271.236 187.754 269.863 187.169 268.386 186.863L268.173 184.596L263.769 184.595L263.555 186.863C262.079 187.17 260.706 187.755 259.487 188.555L257.728 187.098L254.613 190.212L256.07 191.972C255.27 193.191 254.685 194.563 254.379 196.04L252.111 196.254V200.658L254.379 200.872C254.685 202.348 255.271 203.721 256.071 204.94L254.614 206.699L257.728 209.814L259.488 208.357C260.707 209.155 262.08 209.741 263.556 210.047ZM265.971 204.417C262.679 204.417 260.009 201.748 260.009 198.455C260.009 195.162 262.679 192.493 265.971 192.493C269.264 192.493 271.934 195.162 271.934 198.455C271.934 201.748 269.264 204.417 265.971 204.417Z" fill="#F0F0F0"/>
<path d="M149.231 245.204H161.725L162.33 238.771C166.518 237.903 170.411 236.242 173.869 233.974L178.86 238.105L187.693 229.272L183.562 224.281C185.831 220.824 187.491 216.93 188.359 212.741L194.791 212.136V199.643L188.359 199.038C187.49 194.85 185.83 190.956 183.562 187.499L187.693 182.508L178.86 173.675L173.869 177.806C170.41 175.537 166.517 173.877 162.33 173.008L161.725 166.576H149.231L148.626 173.008C144.438 173.877 140.545 175.537 137.086 177.806L132.096 173.675L123.261 182.508L127.394 187.499C125.124 190.957 123.464 194.85 122.596 199.038L116.163 199.643V212.136L122.596 212.741C123.464 216.93 125.124 220.824 127.394 224.281L123.261 229.273L132.096 238.106L137.086 233.974C140.545 236.243 144.438 237.904 148.626 238.772L149.231 245.204ZM155.478 222.801C146.137 222.801 138.566 215.229 138.566 205.889C138.566 196.549 146.137 188.977 155.478 188.977C164.819 188.977 172.39 196.549 172.39 205.889C172.39 215.23 164.819 222.801 155.478 222.801Z" fill="#E0E0E0"/>
<path d="M219.063 222.345L218.401 221.084C216.247 216.981 211.156 215.394 207.051 217.549L204.041 219.129C199.936 221.284 198.35 226.376 200.504 230.48L201.165 231.74L199.066 232.842L206.635 247.26L228.73 235.661L221.162 221.243L219.063 222.345ZM214.461 233.376L215.781 235.891L214.179 236.732L212.858 234.217C212.256 234.181 211.684 233.87 211.383 233.296C210.925 232.424 211.261 231.346 212.133 230.889C213.005 230.431 214.083 230.766 214.541 231.638C214.842 232.211 214.772 232.859 214.461 233.376ZM215.745 224.086L204.483 229.998L203.822 228.738C202.628 226.463 203.508 223.641 205.783 222.447L208.793 220.867C211.068 219.673 213.889 220.551 215.083 222.826L215.745 224.086Z" fill="#F0F0F0"/>
<path d="M64.6016 145.772L65.0685 144.427C66.5889 140.048 64.2634 135.249 59.8849 133.729L56.6733 132.613C52.2928 131.092 47.4937 133.418 45.9732 137.796L45.5063 139.141L43.2671 138.364L37.9258 153.746L61.5 161.932L66.8414 146.55L64.6016 145.772ZM53.4069 149.959L52.475 152.643L50.7652 152.049L51.6971 149.365C51.312 148.901 51.1477 148.27 51.3603 147.659C51.6836 146.729 52.6998 146.237 53.6297 146.559C54.5609 146.883 55.053 147.899 54.7303 148.829C54.5178 149.441 53.9968 149.833 53.4069 149.959ZM61.0621 144.542L49.047 140.37L49.5139 139.026C50.3569 136.599 53.0179 135.311 55.4445 136.154L58.6561 137.269C61.0827 138.112 62.372 140.771 61.529 143.198L61.0621 144.542Z" fill="#F0F0F0"/>
<path d="M275.585 138.245L274.208 137.807C277.235 137.261 279.877 135.137 280.874 132.001C282.308 127.488 279.812 122.666 275.299 121.231C270.785 119.797 265.963 122.293 264.529 126.807C263.532 129.943 264.463 133.201 266.62 135.396L265.243 134.958C261.051 133.626 256.572 135.944 255.239 140.137L253.861 144.473L279.384 152.585L280.762 148.249C282.094 144.056 279.777 139.578 275.585 138.245Z" fill="#F0F0F0"/>
<path d="M183.017 60.4728L182.16 60.8334C183.415 59.3013 183.824 57.1581 183.003 55.2042C181.821 52.3931 178.585 51.0716 175.774 52.2527C172.962 53.4338 171.641 56.6706 172.822 59.4816C173.643 61.4349 175.46 62.6437 177.433 62.8189L176.575 63.1788C173.965 64.2756 172.737 67.2824 173.835 69.8932L174.97 72.5948L190.867 65.9152L189.732 63.2136C188.634 60.6035 185.628 59.376 183.017 60.4728Z" fill="#F0F0F0"/>
<path d="M67.9422 78.5806L67.0309 78.3907C68.9339 77.8413 70.4866 76.308 70.9187 74.2336C71.5409 71.2487 69.6243 68.3243 66.6394 67.7022C63.6538 67.0801 60.7294 68.996 60.1079 71.9809C59.6758 74.0552 60.4866 76.0813 62.0122 77.3448L61.1016 77.1548C58.3292 76.5772 55.6128 78.3565 55.0351 81.1296L54.4375 83.998L71.318 87.5148L71.9157 84.6465C72.4933 81.874 70.7146 79.1583 67.9422 78.5806Z" fill="#F0F0F0"/>
<path d="M161 275.349C229.961 275.349 285.865 272.084 285.865 268.057C285.865 264.03 229.961 260.765 161 260.765C92.0395 260.765 36.1357 264.03 36.1357 268.057C36.1357 272.084 92.0395 275.349 161 275.349Z" fill="#F5F5F5"/>
<path d="M237.754 236.818H122.53C119.928 236.818 117.818 234.709 117.818 232.107V90.6339C117.818 88.0321 119.927 85.9224 122.53 85.9224H237.754C240.355 85.9224 242.465 88.0315 242.465 90.6339V232.107C242.465 234.709 240.356 236.818 237.754 236.818Z" fill="#000080"/>
<path opacity="0.6" d="M237.754 236.818H122.53C119.928 236.818 117.818 234.709 117.818 232.107V90.6339C117.818 88.0321 119.927 85.9224 122.53 85.9224H237.754C240.355 85.9224 242.465 88.0315 242.465 90.6339V232.107C242.465 234.709 240.356 236.818 237.754 236.818Z" fill="white"/>
<path d="M222.272 178.884H138.013V193.311H222.272V178.884Z" fill="white"/>
<g opacity="0.4">
<path d="M142.258 185.812C142.258 184.601 143.179 183.709 144.425 183.709C145.028 183.709 145.571 183.911 145.937 184.312L145.659 184.59C145.323 184.247 144.909 184.099 144.437 184.099C143.439 184.099 142.689 184.832 142.689 185.812C142.689 186.792 143.44 187.525 144.437 187.525C144.909 187.525 145.323 187.377 145.659 187.028L145.937 187.306C145.571 187.708 145.028 187.914 144.419 187.914C143.179 187.915 142.258 187.023 142.258 185.812Z" fill="#263238"/>
<path d="M146.333 186.326C146.333 185.405 147.006 184.749 147.915 184.749C148.825 184.749 149.492 185.405 149.492 186.326C149.492 187.247 148.825 187.908 147.915 187.908C147.007 187.908 146.333 187.247 146.333 186.326ZM149.067 186.326C149.067 185.599 148.577 185.115 147.915 185.115C147.254 185.115 146.758 185.599 146.758 186.326C146.758 187.053 147.255 187.537 147.915 187.537C148.577 187.537 149.067 187.053 149.067 186.326Z" fill="#263238"/>
<path d="M153.207 186.078V187.879H152.788V186.119C152.788 185.463 152.445 185.127 151.855 185.127C151.187 185.127 150.768 185.541 150.768 186.249V187.879H150.349V184.773H150.75V185.346C150.975 184.968 151.394 184.749 151.932 184.749C152.688 184.749 153.207 185.186 153.207 186.078Z" fill="#263238"/>
<path d="M155.357 183.467C155.587 183.467 155.824 183.533 155.978 183.662L155.836 183.975C155.718 183.875 155.552 183.822 155.375 183.822C155.015 183.822 154.826 184.022 154.826 184.407V184.773H155.782V185.127H154.838V187.879H154.418V185.127H153.863V184.773H154.418V184.388C154.418 183.834 154.749 183.467 155.357 183.467ZM157.342 183.787C157.342 183.958 157.211 184.094 157.034 184.094C156.863 184.094 156.727 183.958 156.727 183.793C156.727 183.633 156.863 183.497 157.034 183.497C157.206 183.497 157.342 183.627 157.342 183.787ZM156.822 184.773H157.242V187.879H156.822V184.773Z" fill="#263238"/>
<path d="M159.976 184.749V185.157C159.941 185.157 159.905 185.151 159.876 185.151C159.226 185.151 158.83 185.564 158.83 186.297V187.879H158.411V184.773H158.813V185.381C159.007 184.968 159.404 184.749 159.976 184.749Z" fill="#263238"/>
<path d="M165.859 186.078V187.879H165.439V186.119C165.439 185.463 165.108 185.127 164.547 185.127C163.91 185.127 163.508 185.541 163.508 186.249V187.879H163.089V186.119C163.089 185.463 162.758 185.127 162.191 185.127C161.559 185.127 161.152 185.541 161.152 186.249V187.879H160.732V184.773H161.134V185.34C161.353 184.968 161.754 184.749 162.274 184.749C162.788 184.749 163.189 184.968 163.379 185.405C163.603 185.003 164.046 184.749 164.607 184.749C165.363 184.749 165.859 185.186 165.859 186.078Z" fill="#263238"/>
<path d="M172.09 183.745V187.878H171.73L169.073 184.524V187.878H168.636V183.745H168.996L171.66 187.099V183.745H172.09Z" fill="#263238"/>
<path d="M176.053 186.456H173.455C173.502 187.105 173.998 187.537 174.677 187.537C175.055 187.537 175.392 187.401 175.628 187.129L175.865 187.401C175.587 187.731 175.156 187.908 174.666 187.908C173.698 187.908 173.036 187.247 173.036 186.326C173.036 185.405 173.68 184.749 174.554 184.749C175.428 184.749 176.06 185.393 176.06 186.326C176.059 186.362 176.053 186.409 176.053 186.456ZM173.454 186.143H175.657C175.604 185.535 175.161 185.11 174.553 185.11C173.951 185.109 173.508 185.535 173.454 186.143Z" fill="#263238"/>
<path d="M181.415 184.772L180.24 187.878H179.844L178.863 185.333L177.883 187.878H177.488L176.318 184.772H176.72L177.695 187.412L178.693 184.772H179.053L180.045 187.412L181.032 184.772H181.415Z" fill="#263238"/>
<path d="M186.92 185.163C186.92 186.042 186.283 186.574 185.231 186.574H184.121V187.878H183.684V183.745H185.231C186.283 183.745 186.92 184.277 186.92 185.163ZM186.483 185.163C186.483 184.501 186.046 184.123 185.22 184.123H184.121V186.191H185.22C186.046 186.19 186.483 185.812 186.483 185.163Z" fill="#263238"/>
<path d="M190.091 185.954V187.879H189.689V187.394C189.501 187.713 189.134 187.908 188.62 187.908C187.918 187.908 187.486 187.543 187.486 187.005C187.486 186.527 187.794 186.125 188.685 186.125H189.671V185.936C189.671 185.405 189.37 185.115 188.792 185.115C188.39 185.115 188.012 185.258 187.758 185.482L187.569 185.169C187.882 184.903 188.342 184.75 188.832 184.75C189.637 184.749 190.091 185.151 190.091 185.954ZM189.672 186.946V186.438H188.698C188.095 186.438 187.9 186.674 187.9 186.993C187.9 187.353 188.19 187.577 188.686 187.577C189.158 187.578 189.507 187.353 189.672 186.946Z" fill="#263238"/>
<path d="M190.801 187.525L190.99 187.194C191.238 187.389 191.658 187.543 192.095 187.543C192.686 187.543 192.928 187.342 192.928 187.035C192.928 186.226 190.914 186.863 190.914 185.635C190.914 185.127 191.351 184.749 192.143 184.749C192.544 184.749 192.981 184.862 193.241 185.038L193.058 185.375C192.786 185.186 192.462 185.109 192.143 185.109C191.581 185.109 191.334 185.327 191.334 185.623C191.334 186.461 193.348 185.83 193.348 187.023C193.348 187.56 192.876 187.908 192.066 187.908C191.551 187.908 191.055 187.743 190.801 187.525Z" fill="#263238"/>
<path d="M193.688 187.525L193.878 187.194C194.126 187.389 194.546 187.543 194.982 187.543C195.573 187.543 195.816 187.342 195.816 187.035C195.816 186.226 193.801 186.863 193.801 185.635C193.801 185.127 194.238 184.749 195.03 184.749C195.432 184.749 195.868 184.862 196.129 185.038L195.946 185.375C195.674 185.186 195.349 185.109 195.031 185.109C194.469 185.109 194.222 185.327 194.222 185.623C194.222 186.461 196.236 185.83 196.236 187.023C196.236 187.56 195.763 187.908 194.954 187.908C194.439 187.908 193.943 187.743 193.688 187.525Z" fill="#263238"/>
<path d="M201.508 184.772L200.333 187.878H199.937L198.957 185.333L197.977 187.878H197.582L196.412 184.772H196.813L197.788 187.412L198.786 184.772H199.147L200.139 187.412L201.126 184.772H201.508Z" fill="#263238"/>
<path d="M201.739 186.326C201.739 185.405 202.412 184.749 203.322 184.749C204.232 184.749 204.899 185.405 204.899 186.326C204.899 187.247 204.232 187.908 203.322 187.908C202.412 187.908 201.739 187.247 201.739 186.326ZM204.474 186.326C204.474 185.599 203.984 185.115 203.322 185.115C202.66 185.115 202.164 185.599 202.164 186.326C202.164 187.053 202.661 187.537 203.322 187.537C203.984 187.537 204.474 187.053 204.474 186.326Z" fill="#263238"/>
<path d="M207.32 184.749V185.157C207.284 185.157 207.249 185.151 207.219 185.151C206.57 185.151 206.174 185.564 206.174 186.297V187.879H205.755V184.773H206.157V185.381C206.351 184.968 206.747 184.749 207.32 184.749Z" fill="#263238"/>
<path d="M210.882 183.497V187.879H210.48V187.266C210.227 187.684 209.796 187.909 209.282 187.909C208.396 187.909 207.734 187.266 207.734 186.327C207.734 185.387 208.396 184.75 209.282 184.75C209.778 184.75 210.203 184.962 210.463 185.364V183.498L210.882 183.497ZM210.469 186.326C210.469 185.599 209.973 185.115 209.317 185.115C208.655 185.115 208.159 185.599 208.159 186.326C208.159 187.053 208.655 187.537 209.317 187.537C209.973 187.537 210.469 187.053 210.469 186.326Z" fill="#263238"/>
</g>
<path opacity="0.2" d="M222.272 207.113H138.013V221.541H222.272V207.113Z" fill="black"/>
<path d="M222.272 206.23H138.013V220.658H222.272V206.23Z" fill="#000080"/>
<path d="M156.384 215.121L156.645 214.571C157.012 214.903 157.64 215.143 158.275 215.143C159.129 215.143 159.495 214.811 159.495 214.381C159.495 213.174 156.504 213.937 156.504 212.102C156.504 211.339 157.096 210.691 158.394 210.691C158.973 210.691 159.573 210.846 159.982 211.129L159.749 211.693C159.319 211.418 158.832 211.291 158.394 211.291C157.555 211.291 157.195 211.644 157.195 212.074C157.195 213.28 160.186 212.526 160.186 214.339C160.186 215.095 159.579 215.744 158.274 215.744C157.52 215.742 156.779 215.488 156.384 215.121Z" fill="white"/>
<path d="M164.487 214.042H161.453C161.538 214.697 162.067 215.135 162.808 215.135C163.245 215.135 163.612 214.987 163.887 214.684L164.261 215.121C163.923 215.516 163.407 215.728 162.787 215.728C161.58 215.728 160.775 214.931 160.775 213.816C160.775 212.708 161.573 211.911 162.653 211.911C163.732 211.911 164.501 212.687 164.501 213.837C164.501 213.894 164.494 213.979 164.487 214.042ZM161.453 213.555H163.852C163.782 212.926 163.308 212.483 162.653 212.483C162.004 212.483 161.523 212.92 161.453 213.555Z" fill="white"/>
<path d="M167.545 215.467C167.341 215.643 167.03 215.727 166.726 215.727C165.971 215.727 165.541 215.311 165.541 214.557V212.504H164.906V211.946H165.541V211.128H166.219V211.946H167.291V212.504H166.219V214.529C166.219 214.931 166.431 215.157 166.804 215.157C167.002 215.157 167.192 215.094 167.333 214.981L167.545 215.467Z" fill="white"/>
<path d="M174.35 212.468C174.35 213.541 173.574 214.191 172.289 214.191H171.069V215.686H170.363V210.747H172.289C173.573 210.747 174.35 211.396 174.35 212.468ZM173.644 212.468C173.644 211.763 173.171 211.361 172.268 211.361H171.069V213.576H172.268C173.171 213.577 173.644 213.174 173.644 212.468Z" fill="white"/>
<path d="M178.219 213.428V215.686H177.577V215.192C177.352 215.53 176.935 215.727 176.349 215.727C175.503 215.727 174.967 215.276 174.967 214.627C174.967 214.027 175.355 213.533 176.469 213.533H177.542V213.399C177.542 212.828 177.21 212.497 176.54 212.497C176.096 212.497 175.644 212.652 175.355 212.899L175.072 212.391C175.461 212.081 176.018 211.911 176.617 211.911C177.64 211.911 178.219 212.404 178.219 213.428ZM177.541 214.543V214.021H176.497C175.827 214.021 175.636 214.282 175.636 214.599C175.636 214.973 175.946 215.206 176.462 215.206C176.97 215.206 177.372 214.973 177.541 214.543Z" fill="white"/>
<path d="M179.005 215.291L179.288 214.755C179.605 214.981 180.113 215.143 180.6 215.143C181.228 215.143 181.489 214.952 181.489 214.635C181.489 213.795 179.125 214.522 179.125 213.034C179.125 212.364 179.725 211.912 180.684 211.912C181.171 211.912 181.721 212.039 182.046 212.25L181.757 212.787C181.418 212.568 181.044 212.49 180.677 212.49C180.085 212.49 179.796 212.709 179.796 213.006C179.796 213.887 182.166 213.168 182.166 214.621C182.166 215.299 181.545 215.729 180.55 215.729C179.93 215.728 179.316 215.537 179.005 215.291Z" fill="white"/>
<path d="M182.542 215.291L182.824 214.755C183.142 214.981 183.65 215.143 184.137 215.143C184.764 215.143 185.026 214.952 185.026 214.635C185.026 213.795 182.662 214.522 182.662 213.034C182.662 212.364 183.262 211.912 184.222 211.912C184.708 211.912 185.258 212.039 185.583 212.25L185.294 212.787C184.955 212.568 184.582 212.49 184.214 212.49C183.622 212.49 183.332 212.709 183.332 213.006C183.332 213.887 185.703 213.168 185.703 214.621C185.703 215.299 185.083 215.729 184.088 215.729C183.466 215.728 182.852 215.537 182.542 215.291Z" fill="white"/>
<path d="M192.14 211.946L190.743 215.686H190.094L189.014 212.85L187.921 215.686H187.272L185.882 211.946H186.524L187.611 214.923L188.74 211.946H189.311L190.419 214.938L191.534 211.946H192.14Z" fill="white"/>
<path d="M192.377 213.816C192.377 212.701 193.203 211.911 194.324 211.911C195.446 211.911 196.265 212.701 196.265 213.816C196.265 214.931 195.446 215.728 194.324 215.728C193.203 215.727 192.377 214.931 192.377 213.816ZM195.58 213.816C195.58 213.019 195.044 212.504 194.324 212.504C193.605 212.504 193.062 213.019 193.062 213.816C193.062 214.613 193.605 215.136 194.324 215.136C195.044 215.135 195.58 214.613 195.58 213.816Z" fill="white"/>
<path d="M199.217 211.911V212.567C199.161 212.56 199.111 212.56 199.062 212.56C198.336 212.56 197.884 213.005 197.884 213.823V215.686H197.206V211.947H197.855V212.575C198.095 212.137 198.561 211.911 199.217 211.911Z" fill="white"/>
<path d="M203.544 210.451V215.686H202.894V215.093C202.591 215.516 202.111 215.728 201.561 215.728C200.468 215.728 199.67 214.959 199.67 213.816C199.67 212.673 200.467 211.911 201.561 211.911C202.09 211.911 202.556 212.108 202.867 212.511V210.451H203.544ZM202.874 213.816C202.874 213.019 202.33 212.504 201.618 212.504C200.899 212.504 200.355 213.019 200.355 213.816C200.355 214.614 200.899 215.136 201.618 215.136C202.33 215.135 202.874 214.614 202.874 213.816Z" fill="white"/>
<g opacity="0.6">
<path d="M153.536 146.123L152.37 144.462C152.262 144.47 152.146 144.477 152.03 144.477H150.694V146.123H149.922V140.716H152.03C153.436 140.716 154.286 141.427 154.286 142.601C154.286 143.435 153.853 144.037 153.096 144.308L154.378 146.123H153.536ZM153.513 142.601C153.513 141.829 152.996 141.388 152.007 141.388H150.694V143.821H152.007C152.996 143.821 153.513 143.373 153.513 142.601Z" fill="#263238"/>
<path d="M159.116 144.324H155.795C155.888 145.042 156.467 145.521 157.278 145.521C157.757 145.521 158.158 145.359 158.46 145.026L158.869 145.506C158.498 145.938 157.934 146.169 157.255 146.169C155.934 146.169 155.054 145.297 155.054 144.076C155.054 142.864 155.926 141.991 157.108 141.991C158.29 141.991 159.132 142.841 159.132 144.1C159.132 144.161 159.123 144.254 159.116 144.324ZM155.795 143.791H158.421C158.344 143.103 157.827 142.617 157.108 142.617C156.397 142.617 155.872 143.096 155.795 143.791Z" fill="#263238"/>
<path d="M159.644 145.691L159.953 145.104C160.3 145.351 160.856 145.529 161.389 145.529C162.077 145.529 162.363 145.32 162.363 144.972C162.363 144.053 159.775 144.849 159.775 143.219C159.775 142.485 160.432 141.991 161.482 141.991C162.015 141.991 162.617 142.13 162.972 142.362L162.656 142.949C162.285 142.71 161.876 142.625 161.474 142.625C160.825 142.625 160.508 142.864 160.508 143.188C160.508 144.154 163.103 143.366 163.103 144.957C163.103 145.699 162.423 146.17 161.334 146.17C160.655 146.169 159.983 145.961 159.644 145.691Z" fill="#263238"/>
<path d="M167.718 144.324H164.397C164.489 145.042 165.068 145.521 165.88 145.521C166.358 145.521 166.76 145.359 167.061 145.026L167.471 145.506C167.1 145.938 166.536 146.169 165.856 146.169C164.536 146.169 163.655 145.297 163.655 144.076C163.655 142.864 164.528 141.991 165.71 141.991C166.891 141.991 167.734 142.841 167.734 144.1C167.733 144.161 167.725 144.254 167.718 144.324ZM164.397 143.791H167.023C166.945 143.103 166.428 142.617 165.71 142.617C164.999 142.617 164.474 143.096 164.397 143.791Z" fill="#263238"/>
<path d="M171.064 145.884C170.84 146.077 170.5 146.169 170.168 146.169C169.341 146.169 168.87 145.713 168.87 144.887V142.639H168.175V142.03H168.87V141.134H169.612V142.03H170.786V142.639H169.612V144.856C169.612 145.297 169.843 145.543 170.253 145.543C170.469 145.543 170.678 145.474 170.832 145.35L171.064 145.884Z" fill="#263238"/>
<path d="M178.513 142.601C178.513 143.775 177.664 144.486 176.258 144.486H174.922V146.123H174.149V140.716H176.258C177.664 140.716 178.513 141.427 178.513 142.601ZM177.741 142.601C177.741 141.829 177.223 141.388 176.235 141.388H174.922V143.813H176.235C177.224 143.814 177.741 143.373 177.741 142.601Z" fill="#263238"/>
<path d="M182.748 143.652V146.124H182.046V145.583C181.798 145.954 181.343 146.17 180.702 146.17C179.775 146.17 179.188 145.675 179.188 144.965C179.188 144.308 179.613 143.768 180.833 143.768H182.007V143.621C182.007 142.995 181.644 142.632 180.91 142.632C180.423 142.632 179.929 142.802 179.613 143.073L179.304 142.517C179.728 142.177 180.339 141.992 180.995 141.992C182.115 141.991 182.748 142.531 182.748 143.652ZM182.007 144.872V144.3H180.864C180.13 144.3 179.922 144.586 179.922 144.933C179.922 145.342 180.261 145.597 180.825 145.597C181.382 145.598 181.821 145.343 182.007 144.872Z" fill="#263238"/>
<path d="M183.607 145.691L183.917 145.104C184.264 145.351 184.82 145.529 185.353 145.529C186.04 145.529 186.326 145.32 186.326 144.972C186.326 144.053 183.739 144.849 183.739 143.219C183.739 142.485 184.396 141.991 185.445 141.991C185.979 141.991 186.581 142.13 186.936 142.362L186.619 142.949C186.248 142.71 185.84 142.625 185.438 142.625C184.789 142.625 184.472 142.864 184.472 143.188C184.472 144.154 187.067 143.366 187.067 144.957C187.067 145.699 186.388 146.17 185.299 146.17C184.619 146.169 183.947 145.961 183.607 145.691Z" fill="#263238"/>
<path d="M187.479 145.691L187.789 145.104C188.136 145.351 188.692 145.529 189.225 145.529C189.913 145.529 190.198 145.32 190.198 144.972C190.198 144.053 187.611 144.849 187.611 143.219C187.611 142.485 188.268 141.991 189.317 141.991C189.851 141.991 190.453 142.13 190.808 142.362L190.491 142.949C190.121 142.71 189.712 142.625 189.31 142.625C188.661 142.625 188.344 142.864 188.344 143.188C188.344 144.154 190.939 143.366 190.939 144.957C190.939 145.699 190.26 146.17 189.171 146.17C188.491 146.169 187.82 145.961 187.479 145.691Z" fill="#263238"/>
<path d="M197.986 142.03L196.456 146.123H195.745L194.564 143.018L193.367 146.123H192.656L191.134 142.03H191.837L193.027 145.289L194.262 142.03H194.888L196.101 145.305L197.321 142.03H197.986Z" fill="#263238"/>
<path d="M198.245 144.076C198.245 142.856 199.149 141.991 200.377 141.991C201.605 141.991 202.501 142.856 202.501 144.076C202.501 145.297 201.604 146.169 200.377 146.169C199.149 146.169 198.245 145.297 198.245 144.076ZM201.752 144.076C201.752 143.204 201.164 142.64 200.377 142.64C199.588 142.64 198.994 143.204 198.994 144.076C198.994 144.949 199.588 145.521 200.377 145.521C201.164 145.521 201.752 144.95 201.752 144.076Z" fill="#263238"/>
<path d="M205.731 141.991V142.709C205.67 142.702 205.616 142.702 205.561 142.702C204.766 142.702 204.272 143.188 204.272 144.084V146.122H203.53V142.029H204.241V142.716C204.504 142.239 205.013 141.991 205.731 141.991Z" fill="#263238"/>
<path d="M210.468 140.392V146.123H209.757V145.475C209.425 145.938 208.899 146.169 208.297 146.169C207.1 146.169 206.228 145.328 206.228 144.076C206.228 142.825 207.1 141.991 208.297 141.991C208.877 141.991 209.386 142.208 209.726 142.648V140.393H210.468V140.392ZM209.734 144.076C209.734 143.204 209.14 142.64 208.359 142.64C207.572 142.64 206.977 143.204 206.977 144.076C206.977 144.949 207.572 145.521 208.359 145.521C209.14 145.521 209.734 144.95 209.734 144.076Z" fill="#263238"/>
</g>
<path d="M222.272 157.242H138.013V171.67H222.272V157.242Z" fill="white"/>
<g opacity="0.4">
<path d="M146.079 162.103V166.238H145.718L143.061 162.883V166.238H142.624V162.103H142.984L145.648 165.458V162.103H146.079Z" fill="#263238"/>
<path d="M150.043 164.814H147.444C147.492 165.464 147.988 165.895 148.666 165.895C149.044 165.895 149.381 165.759 149.617 165.487L149.854 165.759C149.576 166.09 149.145 166.267 148.655 166.267C147.687 166.267 147.025 165.605 147.025 164.684C147.025 163.762 147.669 163.107 148.543 163.107C149.417 163.107 150.049 163.751 150.049 164.684C150.048 164.719 150.043 164.766 150.043 164.814ZM147.444 164.5H149.647C149.594 163.892 149.151 163.467 148.543 163.467C147.94 163.467 147.497 163.892 147.444 164.5Z" fill="#263238"/>
<path d="M155.405 163.131L154.229 166.238H153.834L152.854 163.692L151.874 166.238H151.478L150.309 163.131H150.71L151.685 165.771L152.683 163.131H153.044L154.035 165.771L155.022 163.131H155.405Z" fill="#263238"/>
<path d="M160.91 163.52C160.91 164.4 160.272 164.931 159.221 164.931H158.111V166.237H157.674V162.102H159.221C160.272 162.103 160.91 162.634 160.91 163.52ZM160.473 163.52C160.473 162.859 160.036 162.481 159.209 162.481H158.11V164.548H159.209C160.036 164.548 160.473 164.17 160.473 163.52Z" fill="#263238"/>
<path d="M164.082 164.312V166.238H163.68V165.753C163.491 166.072 163.125 166.267 162.611 166.267C161.908 166.267 161.477 165.901 161.477 165.364C161.477 164.885 161.784 164.484 162.676 164.484H163.662V164.295C163.662 163.763 163.36 163.474 162.782 163.474C162.38 163.474 162.002 163.616 161.748 163.84L161.56 163.527C161.873 163.262 162.333 163.108 162.823 163.108C163.627 163.108 164.082 163.508 164.082 164.312ZM163.662 165.304V164.796H162.688C162.085 164.796 161.891 165.033 161.891 165.351C161.891 165.712 162.18 165.936 162.676 165.936C163.148 165.936 163.497 165.711 163.662 165.304Z" fill="#263238"/>
<path d="M164.79 165.883L164.979 165.552C165.227 165.747 165.647 165.9 166.083 165.9C166.674 165.9 166.916 165.7 166.916 165.392C166.916 164.583 164.901 165.221 164.901 163.992C164.901 163.485 165.339 163.107 166.13 163.107C166.532 163.107 166.969 163.219 167.229 163.396L167.046 163.732C166.774 163.544 166.45 163.467 166.131 163.467C165.569 163.467 165.322 163.685 165.322 163.981C165.322 164.819 167.336 164.187 167.336 165.38C167.336 165.918 166.864 166.266 166.054 166.266C165.54 166.267 165.044 166.102 164.79 165.883Z" fill="#263238"/>
<path d="M167.678 165.883L167.866 165.552C168.114 165.747 168.534 165.9 168.971 165.9C169.561 165.9 169.804 165.7 169.804 165.392C169.804 164.583 167.79 165.221 167.79 163.992C167.79 163.485 168.227 163.107 169.019 163.107C169.42 163.107 169.857 163.219 170.117 163.396L169.934 163.732C169.663 163.544 169.338 163.467 169.019 163.467C168.458 163.467 168.21 163.685 168.21 163.981C168.21 164.819 170.224 164.187 170.224 165.38C170.224 165.918 169.752 166.266 168.943 166.266C168.428 166.267 167.932 166.102 167.678 165.883Z" fill="#263238"/>
<path d="M175.497 163.131L174.322 166.238H173.927L172.946 163.692L171.966 166.238H171.571L170.401 163.131H170.803L171.778 165.771L172.776 163.131H173.136L174.129 165.771L175.115 163.131H175.497Z" fill="#263238"/>
<path d="M175.729 164.684C175.729 163.762 176.401 163.107 177.311 163.107C178.221 163.107 178.888 163.762 178.888 164.684C178.888 165.605 178.221 166.267 177.311 166.267C176.401 166.267 175.729 165.605 175.729 164.684ZM178.463 164.684C178.463 163.958 177.973 163.473 177.311 163.473C176.65 163.473 176.154 163.958 176.154 164.684C176.154 165.41 176.65 165.895 177.311 165.895C177.972 165.895 178.463 165.41 178.463 164.684Z" fill="#263238"/>
<path d="M181.31 163.107V163.515C181.275 163.515 181.239 163.509 181.21 163.509C180.56 163.509 180.164 163.923 180.164 164.654V166.237H179.745V163.131H180.146V163.739C180.341 163.325 180.738 163.107 181.31 163.107Z" fill="#263238"/>
<path d="M184.872 161.855V166.237H184.47V165.623C184.216 166.042 183.784 166.267 183.271 166.267C182.385 166.267 181.724 165.623 181.724 164.684C181.724 163.745 182.385 163.108 183.271 163.108C183.767 163.108 184.193 163.32 184.452 163.721V161.855H184.872ZM184.458 164.684C184.458 163.958 183.962 163.473 183.306 163.473C182.645 163.473 182.149 163.958 182.149 164.684C182.149 165.41 182.645 165.895 183.306 165.895C183.962 165.895 184.458 165.41 184.458 164.684Z" fill="#263238"/>
</g>
<path d="M104.17 242.266C104.17 242.266 100.192 242.795 98.4934 242.266C96.7952 241.737 97.4282 234.023 95.6933 233.863C91.6999 233.496 92.3793 243.741 94.0775 245.9C95.7757 248.059 104.53 247.14 104.53 247.14L104.17 242.266Z" fill="#000080"/>
<path opacity="0.2" d="M104.17 242.266C104.17 242.266 100.192 242.795 98.4934 242.266C96.7952 241.737 97.4282 234.023 95.6933 233.863C91.6999 233.496 92.3793 243.741 94.0775 245.9C95.7757 248.059 104.53 247.14 104.53 247.14L104.17 242.266Z" fill="white"/>
<path d="M104.5 260.436C104.5 260.436 98.6076 208.116 105.642 207.514C112.676 206.912 114.373 225.362 111.656 259.772L104.5 260.436Z" fill="#000080"/>
<path opacity="0.3" d="M104.5 260.436C104.5 260.436 98.6076 208.116 105.642 207.514C112.676 206.912 114.373 225.362 111.656 259.772L104.5 260.436Z" fill="white"/>
<path d="M96.2393 254.101H119.376L117.444 268.904H98.1713L96.2393 254.101Z" fill="#263238"/>
<path d="M111.487 224.666C111.487 224.666 117.898 225.008 118.089 224.666C118.281 224.324 118.281 216.919 120.998 217.357C123.716 217.794 122.527 226.708 120.998 227.745C119.47 228.781 111.487 229.342 111.487 229.342C111.487 229.342 110.417 226.055 111.487 224.666Z" fill="#000080"/>
<path opacity="0.4" d="M111.487 224.666C111.487 224.666 117.898 225.008 118.089 224.666C118.281 224.324 118.281 216.919 120.998 217.357C123.716 217.794 122.527 226.708 120.998 227.745C119.47 228.781 111.487 229.342 111.487 229.342C111.487 229.342 110.417 226.055 111.487 224.666Z" fill="white"/>
<path d="M107.424 255.659C106.541 247.687 105.801 239.698 105.274 231.691C105.004 227.688 104.814 223.679 104.741 219.663C104.71 217.655 104.709 215.645 104.809 213.633C104.86 212.627 104.936 211.62 105.092 210.614C105.173 210.112 105.266 209.609 105.435 209.108C105.531 208.859 105.618 208.606 105.804 208.366C105.842 208.305 105.897 208.247 105.962 208.193C106.021 208.137 106.083 208.083 106.183 208.046C106.229 208.027 106.274 208.008 106.321 207.994C106.376 207.991 106.432 207.991 106.488 207.995C106.608 207.991 106.682 208.055 106.773 208.099C107.064 208.319 107.166 208.578 107.284 208.819C107.388 209.065 107.47 209.312 107.541 209.559C107.68 210.054 107.791 210.55 107.881 211.048C108.067 212.043 108.198 213.042 108.314 214.041C108.541 216.04 108.696 218.042 108.827 220.046C109.08 224.053 109.25 228.062 109.344 232.073C109.444 236.083 109.504 240.094 109.533 244.104C109.546 248.115 109.535 252.126 109.491 256.136C109.453 252.126 109.382 248.117 109.287 244.108C109.207 240.099 109.104 236.09 108.957 232.084C108.802 228.078 108.646 224.073 108.371 220.076C108.232 218.078 108.07 216.082 107.837 214.097C107.718 213.105 107.584 212.114 107.398 211.139C107.308 210.651 107.198 210.168 107.064 209.698C106.996 209.464 106.918 209.234 106.826 209.02C106.735 208.813 106.609 208.599 106.496 208.518C106.473 208.514 106.448 208.476 106.436 208.494C106.43 208.495 106.423 208.493 106.416 208.487C106.405 208.493 106.393 208.502 106.381 208.507C106.358 208.508 106.325 208.536 106.294 208.569C106.261 208.593 106.228 208.625 106.2 208.672C106.074 208.827 105.987 209.055 105.905 209.271C105.75 209.721 105.658 210.207 105.577 210.692C105.423 211.668 105.343 212.663 105.289 213.659C105.182 215.653 105.175 217.655 105.199 219.657C105.249 223.661 105.45 227.665 105.66 231.668C105.879 235.671 106.154 239.67 106.457 243.668C106.746 247.667 107.064 251.664 107.424 255.659Z" fill="#000080"/>
<path d="M112.294 226.423L116.019 226.138C116.636 226.078 117.255 226.035 117.865 225.952C118.168 225.912 118.473 225.872 118.76 225.805C118.898 225.771 119.046 225.729 119.135 225.681C119.136 225.676 119.18 225.651 119.152 225.671C119.14 225.682 119.149 225.685 119.135 225.711C119.12 225.733 119.13 225.789 119.137 225.787C119.124 225.69 119.102 225.57 119.106 225.49C119.174 224.182 119.431 222.984 119.696 221.756C119.979 220.541 120.251 219.318 120.703 218.147C120.57 218.757 120.47 219.37 120.377 219.987L120.077 221.828L119.8 223.669C119.715 224.277 119.618 224.905 119.608 225.484C119.605 225.559 119.619 225.593 119.618 225.651C119.626 225.688 119.632 225.782 119.617 225.843C119.603 225.908 119.572 225.937 119.542 225.982C119.473 226.069 119.436 226.071 119.378 226.115C119.189 226.212 119.032 226.244 118.869 226.284C118.547 226.353 118.234 226.395 117.919 226.425C117.289 226.48 116.665 226.519 116.039 226.523C114.788 226.544 113.54 226.522 112.294 226.423Z" fill="#000080"/>
<path d="M112.294 228.133C113.694 227.897 115.098 227.705 116.499 227.505L118.597 227.206C119.277 227.098 120.032 226.998 120.609 226.808C120.632 226.801 120.743 226.668 120.795 226.522C120.858 226.378 120.909 226.216 120.955 226.053C121.045 225.725 121.112 225.381 121.17 225.037C121.289 224.348 121.354 223.646 121.444 222.947C121.6 221.544 121.712 220.133 121.847 218.72C121.92 220.138 121.905 221.558 121.829 222.979C121.8 223.691 121.721 224.399 121.621 225.109C121.568 225.464 121.509 225.819 121.419 226.176C121.372 226.354 121.322 226.533 121.246 226.715C121.164 226.889 121.104 227.097 120.815 227.266C120.408 227.412 120.08 227.444 119.719 227.51L118.659 227.659C117.953 227.746 117.25 227.837 116.542 227.887C115.129 228.009 113.714 228.103 112.294 228.133Z" fill="#000080"/>
<path d="M102.19 243.697C101.007 243.758 99.8235 243.734 98.6386 243.624C98.0435 243.567 97.4562 243.494 96.8534 243.301C96.7748 243.269 96.7085 243.257 96.619 243.208C96.5159 243.154 96.4387 243.086 96.3788 243.014C96.2532 242.871 96.1798 242.722 96.1102 242.575C95.9801 242.28 95.9022 241.984 95.8314 241.688C95.5802 240.502 95.5055 239.317 95.4823 238.132C95.463 236.947 95.4894 235.764 95.606 234.586C95.6987 235.766 95.7689 236.941 95.8687 238.112C95.9808 239.279 96.0722 240.456 96.3215 241.577C96.4554 242.105 96.5874 242.767 97.015 242.855C97.527 243.05 98.1182 243.134 98.6881 243.243C99.8435 243.429 101.016 243.551 102.19 243.697Z" fill="#000080"/>
<path d="M94.4197 235.518L94.8376 239.634C94.9857 241 95.1004 242.376 95.3612 243.71C95.4204 244.043 95.4893 244.375 95.5885 244.68C95.6387 244.82 95.7057 244.989 95.765 245.047L95.924 245.161C95.9884 245.195 96.0644 245.224 96.134 245.257C96.7265 245.5 97.4226 245.589 98.0885 245.713C99.4409 245.92 100.815 246.045 102.189 246.183C100.807 246.254 99.4235 246.226 98.0389 246.096C97.3441 246.027 96.6569 245.935 95.9607 245.68C95.8732 245.642 95.7862 245.611 95.6986 245.566C95.6098 245.506 95.5209 245.447 95.4352 245.382C95.253 245.187 95.2111 245.016 95.1345 244.839C95.0134 244.492 94.9342 244.148 94.8672 243.803C94.6405 242.421 94.5201 241.045 94.4531 239.663C94.392 238.281 94.3662 236.9 94.4197 235.518Z" fill="#000080"/>
<path d="M117.608 89.5C121.779 82.2189 131.095 79.6893 138.376 83.8598L137.754 84.9456L142.068 83.7742L140.897 79.46L140.275 80.5458C131.167 75.3281 119.511 78.494 114.294 87.6021C110.252 94.6578 111.136 103.505 116.494 109.617L119.367 107.099C115.084 102.212 114.377 95.1401 117.608 89.5Z" fill="#263238"/>
<path d="M145.337 84.752L142.423 87.2217C146.55 92.091 147.19 99.0861 144.015 104.628C139.845 111.909 130.529 114.438 123.248 110.268L123.87 109.182L119.556 110.354L120.727 114.668L121.349 113.583C130.457 118.8 142.112 115.634 147.33 106.526C151.301 99.5942 150.5 90.8435 145.337 84.752Z" fill="#263238"/>
<g opacity="0.6">
<path d="M117.608 89.5C121.779 82.2189 131.095 79.6893 138.376 83.8598L137.754 84.9456L142.068 83.7742L140.897 79.46L140.275 80.5458C131.167 75.3281 119.511 78.494 114.294 87.6021C110.252 94.6578 111.136 103.505 116.494 109.617L119.367 107.099C115.084 102.212 114.377 95.1401 117.608 89.5Z" fill="white"/>
<path d="M145.337 84.752L142.423 87.2217C146.55 92.091 147.19 99.0861 144.015 104.628C139.845 111.909 130.529 114.438 123.248 110.268L123.87 109.182L119.556 110.354L120.727 114.668L121.349 113.583C130.457 118.8 142.112 115.634 147.33 106.526C151.301 99.5942 150.5 90.8435 145.337 84.752Z" fill="white"/>
</g>
<path d="M128.073 79.017H123.874V66.1312C123.874 61.2058 119.867 57.1989 114.942 57.1989C110.017 57.1989 106.01 61.2065 106.01 66.1312V79.017H101.812V66.1312C101.812 58.8907 107.702 53 114.942 53C122.183 53 128.073 58.89 128.073 66.1312V79.017Z" fill="#263238"/>
<g opacity="0.3">
<path d="M128.073 79.017H123.874V66.1312C123.874 61.2058 119.867 57.1989 114.942 57.1989C110.017 57.1989 106.01 61.2065 106.01 66.1312V79.017H101.812V66.1312C101.812 58.8907 107.702 53 114.942 53C122.183 53 128.073 58.89 128.073 66.1312V79.017Z" fill="white"/>
</g>
<path d="M132.884 75.7382V96.8163C132.884 98.1687 131.789 99.2635 130.436 99.2635H99.4343C98.0948 99.2635 97 98.1687 97 96.8163V75.7382C97 74.3858 98.0948 73.291 99.4343 73.291H130.436C130.855 73.291 131.254 73.3941 131.596 73.5873C132.362 73.993 132.884 74.8044 132.884 75.7382Z" fill="#000080"/>
<path opacity="0.2" d="M131.596 73.5873V94.2403C131.596 95.5927 130.501 96.6811 129.148 96.6811H98.1463C97.7342 96.6811 97.3413 96.5781 97 96.3913V75.7382C97 74.3858 98.0948 73.291 99.4343 73.291H130.436C130.856 73.291 131.255 73.3941 131.596 73.5873Z" fill="white"/>
<path opacity="0.5" d="M119.559 83.6313C119.559 81.0328 117.492 78.9263 114.942 78.9263C112.392 78.9263 110.325 81.0328 110.325 83.6313C110.325 85.6516 111.582 87.3601 113.336 88.0266L113.095 93.6281H116.789L116.238 88.1252C118.152 87.552 119.559 85.7681 119.559 83.6313Z" fill="black"/>
<path d="M257.838 95.6338L259.975 102.499L262.111 95.6338H257.838Z" fill="#000080"/>
<path d="M277.455 97.7256H242.493C239.437 97.7256 236.96 95.2482 236.96 92.1924V84.7452C236.96 81.6894 239.437 79.2119 242.493 79.2119H277.455C280.511 79.2119 282.989 81.6894 282.989 84.7452V92.1924C282.989 95.2482 280.512 97.7256 277.455 97.7256Z" fill="#000080"/>
<path d="M247.78 88.4603L248.992 89.1429L248.676 89.7025L247.444 88.98L247.454 90.3646H246.844L246.854 88.98L245.622 89.7025L245.307 89.1429L246.528 88.4603L245.307 87.7886L245.622 87.2186L246.854 87.9412L246.844 86.5669H247.454L247.444 87.9412L248.676 87.2186L248.992 87.7886L247.78 88.4603Z" fill="white"/>
<path d="M252.055 88.4603L253.266 89.1429L252.951 89.7025L251.719 88.98L251.73 90.3646H251.119L251.13 88.98L249.898 89.7025L249.582 89.1429L250.804 88.4603L249.582 87.7886L249.898 87.2186L251.13 87.9412L251.119 86.5669H251.73L251.719 87.9412L252.951 87.2186L253.266 87.7886L252.055 88.4603Z" fill="white"/>
<path d="M256.331 88.4603L257.542 89.1429L257.227 89.7025L255.995 88.98L256.005 90.3646H255.395L255.405 88.98L254.173 89.7025L253.857 89.1429L255.079 88.4603L253.857 87.7886L254.173 87.2186L255.405 87.9412L255.395 86.5669H256.005L255.995 87.9412L257.227 87.2186L257.542 87.7886L256.331 88.4603Z" fill="white"/>
<path d="M260.605 88.4603L261.817 89.1429L261.501 89.7025L260.269 88.98L260.28 90.3646H259.669L259.679 88.98L258.447 89.7025L258.132 89.1429L259.354 88.4603L258.132 87.7886L258.447 87.2186L259.679 87.9412L259.669 86.5669H260.28L260.269 87.9412L261.501 87.2186L261.817 87.7886L260.605 88.4603Z" fill="white"/>
<path d="M264.881 88.4603L266.092 89.1429L265.777 89.7025L264.545 88.98L264.555 90.3646H263.944L263.955 88.98L262.723 89.7025L262.407 89.1429L263.629 88.4603L262.407 87.7886L262.723 87.2186L263.955 87.9412L263.944 86.5669H264.555L264.545 87.9412L265.777 87.2186L266.092 87.7886L264.881 88.4603Z" fill="white"/>
<path d="M269.156 88.4603L270.368 89.1429L270.052 89.7025L268.82 88.98L268.83 90.3646H268.22L268.23 88.98L266.998 89.7025L266.683 89.1429L267.904 88.4603L266.683 87.7886L266.998 87.2186L268.23 87.9412L268.22 86.5669H268.83L268.82 87.9412L270.052 87.2186L270.368 87.7886L269.156 88.4603Z" fill="white"/>
<path d="M273.432 88.4603L274.643 89.1429L274.327 89.7025L273.095 88.98L273.106 90.3646H272.495L272.506 88.98L271.274 89.7025L270.958 89.1429L272.18 88.4603L270.958 87.7886L271.274 87.2186L272.506 87.9412L272.495 86.5669H273.106L273.095 87.9412L274.327 87.2186L274.643 87.7886L273.432 88.4603Z" fill="white"/>
<path d="M235.908 143.606L231.979 141.064L236.403 138.349C236.403 138.349 239.771 140.829 238.421 142.51L235.908 143.606Z" fill="#B55B52"/>
<path d="M229.965 136.888L234.561 135.845L236.402 138.348L231.979 141.064L229.965 136.888Z" fill="#B55B52"/>
<path d="M252.088 135.349C250.851 137.335 249.523 139.399 248.181 141.329C247.513 142.302 246.816 143.243 246.118 144.127C245.432 145 244.667 145.838 244.058 146.355C243.913 146.478 243.782 146.573 243.718 146.618C243.656 146.668 243.685 146.634 243.935 146.629C244.064 146.659 243.996 146.725 243.736 146.62C243.215 146.412 242.419 145.692 241.732 144.893C241.03 144.079 240.357 143.142 239.714 142.172C239.4 141.684 239.077 141.19 238.781 140.696L238.382 140.005C238.372 139.992 238.36 139.969 238.36 139.987C238.353 139.972 238.371 140.049 238.372 140.086C238.378 140.126 238.391 140.24 238.389 140.315L238.384 140.441C238.325 140.499 238.529 140.327 238.13 141.212C237.661 142.082 236.364 142.022 236.37 141.939C236.215 141.905 236.049 141.843 235.898 141.754C235.746 141.665 235.611 141.551 235.507 141.432L235.443 141.354C235.411 141.312 235.382 141.267 235.357 141.222L235.349 141.201C235.342 141.182 235.345 141.181 235.353 141.19C235.362 141.193 235.379 141.215 235.397 141.236C235.467 141.325 235.549 141.449 235.627 141.569L238.466 140.357C238.423 140.192 238.38 140.031 238.318 139.841C238.301 139.792 238.286 139.744 238.258 139.679C238.249 139.654 238.233 139.618 238.207 139.565L238.171 139.495C238.134 139.433 238.094 139.373 238.052 139.315C238.023 139.279 238.07 139.332 237.979 139.225C237.871 139.104 237.732 138.986 237.577 138.894C237.422 138.802 237.253 138.737 237.093 138.7C237.096 138.614 235.796 138.562 235.325 139.435C234.922 140.323 235.126 140.157 235.068 140.219L235.064 140.359C235.063 140.444 235.076 140.568 235.084 140.617L235.121 140.83L235.165 141.036C235.256 141.444 235.335 141.749 235.426 142.083C235.605 142.734 235.8 143.368 236.034 143.992C236.493 145.244 237.044 146.471 237.767 147.687C238.514 148.896 239.336 150.133 240.93 151.244C241.721 151.781 242.875 152.286 244.252 152.246C245.122 152.2 245.747 151.957 246.24 151.735C246.732 151.505 247.122 151.261 247.478 151.018C248.857 150.046 249.784 149.044 250.712 148.041C251.622 147.036 252.43 146.003 253.217 144.969C254.771 142.873 256.151 140.776 257.462 138.507L252.088 135.349Z" fill="#B55B52"/>
<path d="M254.04 132.524C251.485 133.378 246.236 145.243 246.236 145.243L255.113 149.458C255.113 149.458 256.919 140.133 256.587 137.145C256.254 134.156 254.04 132.524 254.04 132.524Z" fill="#000080"/>
<path opacity="0.7" d="M254.04 132.524C251.485 133.378 246.236 145.243 246.236 145.243L255.113 149.458C255.113 149.458 256.919 140.133 256.587 137.145C256.254 134.156 254.04 132.524 254.04 132.524Z" fill="white"/>
<path d="M243.605 270.128L248.127 271.408L249.203 264.372L249.782 260.609L245.261 259.329L244.49 264.372L243.605 270.128Z" fill="#B55B52"/>
<path d="M269.599 270.498L274.259 271.116L274.304 264.372L274.336 260.182L269.668 259.571L269.637 264.372L269.599 270.498Z" fill="#B55B52"/>
<path opacity="0.2" d="M269.668 259.571L269.637 264.372H274.304L274.336 260.182L269.668 259.571Z" fill="black"/>
<path opacity="0.2" d="M244.49 264.372H249.203L249.782 260.609L245.261 259.329L244.49 264.372Z" fill="black"/>
<path d="M243.661 269.424L248.796 269.285C248.987 269.28 249.159 269.408 249.207 269.594L250.286 273.728C250.398 274.157 250.084 274.574 249.639 274.579C247.786 274.598 245.105 274.562 242.778 274.624C240.056 274.697 238.325 274.564 235.133 274.65C233.203 274.702 232.597 272.774 233.399 272.576C237.048 271.676 239.433 271.854 242.542 269.818C242.88 269.598 243.255 269.435 243.661 269.424Z" fill="#263238"/>
<path d="M243.292 269.991C243.297 269.944 243.272 269.899 243.229 269.879C243.012 269.775 241.089 268.867 240.528 269.204C240.419 269.269 240.36 269.372 240.354 269.504C240.346 269.726 240.422 269.905 240.582 270.038C241.114 270.479 242.455 270.258 243.207 270.087C243.212 270.086 243.216 270.084 243.221 270.083C243.261 270.068 243.288 270.033 243.292 269.991ZM242.83 269.94C241.798 270.139 241.023 270.115 240.724 269.868C240.619 269.781 240.571 269.666 240.577 269.515C240.58 269.457 240.599 269.421 240.643 269.395C240.655 269.388 240.668 269.381 240.683 269.376C241.033 269.244 242.072 269.605 242.83 269.94Z" fill="#000080"/>
<path d="M243.25 270.067C243.281 270.043 243.297 270.004 243.292 269.965C243.285 269.912 243.113 268.655 242.497 268.182C242.309 268.038 242.099 267.98 241.873 268.009C241.568 268.049 241.485 268.204 241.469 268.33C241.402 268.861 242.562 269.843 243.139 270.081C243.166 270.092 243.195 270.092 243.221 270.082C243.231 270.079 243.241 270.074 243.25 270.067ZM241.903 268.229C242.07 268.207 242.22 268.25 242.362 268.357C242.766 268.668 242.961 269.417 243.034 269.784C242.443 269.453 241.65 268.678 241.69 268.359C241.693 268.339 241.699 268.289 241.79 268.255C241.819 268.244 241.856 268.235 241.903 268.229Z" fill="#000080"/>
<path d="M269.785 269.424L274.92 269.285C275.112 269.28 275.283 269.408 275.331 269.594L276.41 273.728C276.522 274.157 276.208 274.574 275.763 274.579C273.91 274.598 271.23 274.562 268.902 274.624C266.18 274.697 264.449 274.564 261.257 274.65C259.327 274.702 258.721 272.774 259.523 272.576C263.172 271.676 265.557 271.854 268.666 269.818C269.003 269.598 269.379 269.435 269.785 269.424Z" fill="#263238"/>
<path d="M269.416 269.991C269.421 269.944 269.396 269.899 269.353 269.879C269.136 269.775 267.213 268.867 266.652 269.204C266.543 269.269 266.484 269.372 266.478 269.504C266.469 269.726 266.546 269.905 266.706 270.038C267.238 270.479 268.579 270.258 269.331 270.087C269.336 270.086 269.341 270.084 269.345 270.083C269.384 270.068 269.412 270.033 269.416 269.991ZM268.954 269.94C267.922 270.139 267.147 270.115 266.848 269.868C266.743 269.781 266.695 269.666 266.701 269.515C266.704 269.457 266.723 269.421 266.767 269.395C266.779 269.388 266.792 269.381 266.807 269.376C267.157 269.244 268.195 269.605 268.954 269.94Z" fill="#000080"/>
<path d="M269.374 270.067C269.405 270.043 269.421 270.004 269.416 269.965C269.409 269.912 269.237 268.655 268.621 268.182C268.433 268.038 268.223 267.98 267.997 268.009C267.692 268.049 267.609 268.204 267.593 268.33C267.526 268.861 268.686 269.843 269.263 270.081C269.29 270.092 269.319 270.092 269.345 270.082C269.356 270.079 269.365 270.074 269.374 270.067ZM268.027 268.229C268.194 268.207 268.344 268.25 268.485 268.357C268.89 268.668 269.084 269.417 269.158 269.784C268.566 269.453 267.774 268.678 267.814 268.359C267.816 268.339 267.823 268.289 267.914 268.255C267.943 268.244 267.979 268.235 268.027 268.229Z" fill="#000080"/>
<path d="M279.215 168.013C281.684 178.72 277.446 262.933 277.446 262.933H269.256L265.754 192.751L252.856 262.933L244.103 262.296C249.825 207.93 254.884 175.472 254.884 175.472L254.872 171.371L279.215 168.013Z" fill="#263238"/>
<path opacity="0.2" d="M244.102 262.296L252.858 262.933L263.008 207.687L265.753 192.755L269.255 262.933H277.444C277.444 262.933 281.685 178.72 279.214 168.016L254.87 171.372L254.883 175.473C254.883 175.473 249.827 207.929 244.102 262.296Z" fill="white"/>
<path d="M279.768 131.837C278.85 137.01 278.451 142.23 278.33 147.121C278.244 150.7 278.314 154.101 278.452 157.179C278.773 164.395 279.467 169.856 279.434 171.73C275.833 171.796 262.264 172.04 254.865 172.17C249.002 146.47 254.039 132.524 254.039 132.524C254.039 132.524 256.688 131.749 259.81 131.29C260.221 131.227 260.64 131.176 261.066 131.13C263.825 130.829 268.371 130.849 271.512 130.943C272.173 130.963 272.842 131.001 273.494 131.048C276.814 131.294 279.768 131.837 279.768 131.837Z" fill="#000080"/>
<path d="M260.301 131.949C260.301 131.949 261.766 134.07 262.94 134.218C264.601 134.44 270.679 130.727 270.679 130.727C269.273 129.688 268.586 127.432 268.284 125.042C268.022 122.962 268.056 120.786 268.159 119.197L262.485 125.367C263.235 127.292 263.678 129.362 262.21 130.811C262.202 130.818 262.194 130.816 262.194 130.816C261.757 131.26 261.138 131.641 260.301 131.949Z" fill="#B55B52"/>
<path opacity="0.2" d="M262.211 130.812C264.603 129.506 267.026 127.293 268.284 125.042C268.023 122.963 268.056 120.786 268.16 119.197L262.486 125.367C263.236 127.294 263.678 129.363 262.211 130.812Z" fill="black"/>
<path d="M255.897 113.653C255.418 115.443 255.879 119.057 258.294 117.771C260.711 116.485 256.721 110.577 255.897 113.653Z" fill="#263238"/>
<path d="M268.722 115.489C269.19 120.015 269.694 122.642 267.805 125.298C264.962 129.291 259.071 128.102 257.255 123.794C255.621 119.916 255.131 113.166 259.237 110.696C263.283 108.263 268.255 110.963 268.722 115.489Z" fill="#B55B52"/>
<path d="M265.433 113.16L265.215 108.089C265.215 108.089 270.593 107.455 270.473 110.227C273.525 111.58 272.314 116.291 268.398 118.745C266.121 117.079 266.19 112.827 266.19 112.827C265.957 112.943 265.7 113.053 265.433 113.16Z" fill="#263238"/>
<path d="M271.071 118.937C270.904 120.15 270.189 121.168 269.373 121.757C268.146 122.643 266.997 121.669 266.89 120.237C266.794 118.948 267.316 116.932 268.763 116.614C270.189 116.3 271.262 117.55 271.071 118.937Z" fill="#B55B52"/>
<path d="M262.108 117.805C262.169 118.17 262.024 118.496 261.784 118.533C261.545 118.57 261.302 118.305 261.241 117.939C261.181 117.574 261.326 117.248 261.565 117.211C261.805 117.174 262.048 117.44 262.108 117.805Z" fill="#263238"/>
<path d="M257.97 118.449C258.03 118.814 257.885 119.14 257.646 119.177C257.406 119.214 257.163 118.948 257.103 118.583C257.042 118.218 257.187 117.892 257.427 117.855C257.666 117.818 257.909 118.084 257.97 118.449Z" fill="#263238"/>
<path d="M259.315 118.425C259.315 118.425 258.798 120.586 258.036 121.714C258.77 122.184 259.825 121.736 259.825 121.736L259.315 118.425Z" fill="#A02724"/>
<path d="M262.02 122.828C261.873 122.872 261.716 122.908 261.548 122.934C261.489 122.943 261.433 122.902 261.423 122.843C261.412 122.784 261.454 122.729 261.512 122.72C263.12 122.467 263.684 121.233 263.689 121.221C263.713 121.166 263.778 121.143 263.833 121.166C263.888 121.191 263.914 121.255 263.889 121.31C263.867 121.359 263.381 122.424 262.02 122.828Z" fill="#263238"/>
<path d="M263.164 116.273C263.091 116.295 263.009 116.278 262.949 116.221C262.244 115.549 261.461 115.718 261.453 115.719C261.336 115.746 261.218 115.673 261.19 115.556C261.163 115.44 261.236 115.323 261.352 115.297C261.393 115.287 262.375 115.075 263.249 115.909C263.337 115.992 263.34 116.129 263.258 116.216C263.231 116.243 263.198 116.263 263.164 116.273Z" fill="#263238"/>
<path d="M255.952 117.307C255.912 117.319 255.869 117.32 255.826 117.307C255.711 117.271 255.645 117.15 255.679 117.036C256.022 115.886 256.983 115.606 257.024 115.588C257.14 115.555 257.261 115.621 257.296 115.737C257.33 115.851 257.265 115.971 257.151 116.005C257.11 116.015 256.373 116.24 256.098 117.163C256.075 117.235 256.019 117.288 255.952 117.307Z" fill="#263238"/>
<path d="M270.473 110.227C270.473 110.227 273.256 107.467 263.812 107.719C254.368 107.971 252.799 113.261 257.126 114.491L257.325 113.63C257.325 113.63 259.549 114.934 262.169 113.874L261.484 113.449C261.484 113.449 267.926 114.11 270.473 110.227Z" fill="#263238"/>
<path d="M262.938 134.221C262.938 134.221 264.141 135.611 265.545 136.984C267.549 135.97 272.24 133.259 272.007 130.755C271.73 130.026 269.824 129.565 269.824 129.565C269.824 129.565 267.747 132.262 262.938 134.221Z" fill="#000080"/>
<path d="M262.938 134.221C262.938 134.221 261.371 135.438 260.355 136.983C258.879 136.029 259.624 131.369 260.165 130.854C261.333 130.151 262.704 130.188 262.704 130.188C262.704 130.188 261.656 132.308 262.938 134.221Z" fill="#000080"/>
<g opacity="0.5">
<path d="M262.938 134.221C262.938 134.221 264.141 135.611 265.545 136.984C267.549 135.97 272.24 133.259 272.007 130.755C271.73 130.026 269.824 129.565 269.824 129.565C269.824 129.565 267.747 132.262 262.938 134.221Z" fill="white"/>
<path d="M262.938 134.221C262.938 134.221 261.371 135.438 260.355 136.983C258.879 136.029 259.624 131.369 260.165 130.854C261.333 130.151 262.704 130.188 262.704 130.188C262.704 130.188 261.656 132.308 262.938 134.221Z" fill="white"/>
</g>
<path opacity="0.2" d="M263.007 207.687L265.752 192.754L265.223 184.852C265.223 184.852 261.46 198.555 263.007 207.687Z" fill="black"/>
<path d="M277.194 138.659L281.416 145.545C282.117 146.689 282.799 147.842 283.464 148.982C284.124 150.12 284.769 151.282 285.29 152.356C285.55 152.891 285.737 153.346 285.907 153.864C286.075 154.429 286.249 155.037 286.406 155.666C286.714 156.927 287.003 158.241 287.284 159.556C287.849 162.189 288.409 164.871 289.026 167.529L292.101 167.257C292.213 164.466 292.187 161.706 292.022 158.917C291.932 157.521 291.831 156.126 291.64 154.697C291.544 153.98 291.441 153.248 291.28 152.486C291.108 151.678 290.84 150.84 290.556 150.12C290.004 148.676 289.382 147.409 288.747 146.138C288.119 144.866 287.444 143.644 286.769 142.423C285.4 139.989 283.978 137.637 282.441 135.297L277.194 138.659Z" fill="#B55B52"/>
<path d="M279.768 131.837C283.223 132.729 289.392 145.16 289.392 145.16L282.046 149.92L275.417 143.487C275.417 143.487 274.751 140.406 275.839 136.502C276.928 132.597 279.768 131.837 279.768 131.837Z" fill="#000080"/>
<path opacity="0.7" d="M279.768 131.837C283.223 132.729 289.392 145.16 289.392 145.16L282.046 149.92L275.417 143.487C275.417 143.487 274.751 140.406 275.839 136.502C276.928 132.597 279.768 131.837 279.768 131.837Z" fill="white"/>
<path d="M220.415 121.367L271.464 175.503L277.139 170.152L226.09 116.016C224.935 114.79 223.005 114.733 221.779 115.889L220.541 117.056C219.316 118.212 219.26 120.142 220.415 121.367Z" fill="#263238"/>
<path opacity="0.6" d="M220.415 121.367L271.464 175.503L277.139 170.152L226.09 116.016C224.935 114.79 223.005 114.733 221.779 115.889L220.541 117.056C219.316 118.212 219.26 120.142 220.415 121.367Z" fill="white"/>
<path opacity="0.2" d="M221.398 116.252L220.544 117.058C219.318 118.214 219.258 120.142 220.413 121.368L271.462 175.505L272.316 174.699L221.267 120.562C220.111 119.337 220.172 117.408 221.398 116.252Z" fill="black"/>
<path d="M237.688 137.216L228.226 146.137L226.995 144.831L228.219 143.676L226.273 141.611L226.991 140.934L224.069 137.836L223.351 138.513L221.526 136.578L220.301 137.732L219.027 136.381L219.744 135.704L217.913 133.761L219.348 132.407L218.154 131.14L216 133.171L213.809 130.848L223.27 121.927L237.688 137.216Z" fill="#263238"/>
<path opacity="0.6" d="M237.688 137.216L228.226 146.137L226.995 144.831L228.219 143.676L226.273 141.611L226.991 140.934L224.069 137.836L223.351 138.513L221.526 136.578L220.301 137.732L219.027 136.381L219.744 135.704L217.913 133.761L219.348 132.407L218.154 131.14L216 133.171L213.809 130.848L223.27 121.927L237.688 137.216Z" fill="white"/>
<g opacity="0.2">
<path opacity="0.6" d="M227.849 144.018L229.077 145.32L228.223 146.126L226.995 144.823L227.849 144.018Z" fill="black"/>
<path opacity="0.6" d="M223.348 138.512L224.065 137.835L226.989 140.936L226.272 141.612L228.22 143.679L229.074 142.874L227.125 140.807L227.843 140.131L224.919 137.03L224.202 137.707L222.378 135.772L221.523 136.578L223.348 138.512Z" fill="black"/>
<path opacity="0.6" d="M220.601 134.898L218.769 132.955L217.91 133.764L219.743 135.707L219.025 136.384L220.298 137.733L221.152 136.928L219.88 135.578L220.601 134.898Z" fill="black"/>
<path opacity="0.6" d="M219.009 130.344L220.205 131.612L219.351 132.418L218.155 131.15L219.009 130.344Z" fill="black"/>
<path opacity="0.6" d="M214.662 130.035L216.853 132.358L215.998 133.163L213.808 130.84L214.662 130.035Z" fill="black"/>
</g>
<path d="M220.775 122.749L236.424 139.345C236.683 139.62 237.115 139.632 237.389 139.374L243.069 134.017C243.343 133.759 243.356 133.327 243.097 133.053L227.448 116.457C227.189 116.183 226.758 116.17 226.483 116.429L220.803 121.785C220.529 122.043 220.517 122.475 220.775 122.749Z" fill="#263238"/>
<path d="M271.167 193.005C276.163 198.303 284.508 198.548 289.806 193.552L294.081 189.521C299.379 184.525 299.624 176.18 294.628 170.882C289.632 165.584 281.287 165.339 275.989 170.334L271.714 174.365C266.416 179.361 266.171 187.707 271.167 193.005Z" fill="#263238"/>
<path d="M276.084 188.369C278.57 191.006 282.724 191.128 285.361 188.641L289.44 184.795C292.077 182.309 292.198 178.155 289.712 175.518C287.226 172.881 283.072 172.759 280.435 175.246L276.356 179.091C273.719 181.578 273.597 185.732 276.084 188.369Z" fill="white"/>
<path opacity="0.5" d="M220.775 122.749L236.424 139.345C236.683 139.62 237.115 139.632 237.389 139.374L243.069 134.017C243.343 133.759 243.356 133.327 243.097 133.053L227.448 116.457C227.189 116.183 226.758 116.17 226.483 116.429L220.803 121.785C220.529 122.043 220.517 122.475 220.775 122.749Z" fill="white"/>
<g opacity="0.5">
<path d="M271.167 193.005C276.163 198.303 284.508 198.548 289.806 193.552L294.081 189.521C299.379 184.525 299.624 176.18 294.628 170.882C289.632 165.584 281.287 165.339 275.989 170.334L271.714 174.365C266.416 179.361 266.171 187.707 271.167 193.005Z" fill="white"/>
<path d="M276.084 188.369C278.57 191.006 282.724 191.128 285.361 188.641L289.44 184.795C292.077 182.309 292.198 178.155 289.712 175.518C287.226 172.881 283.072 172.759 280.435 175.246L276.356 179.091C273.719 181.578 273.597 185.732 276.084 188.369Z" fill="white"/>
</g>
<path opacity="0.2" d="M222.512 120.171L220.804 121.782C220.526 122.043 220.513 122.475 220.776 122.753L236.424 139.348C236.682 139.621 237.113 139.634 237.391 139.372L239.099 137.762C238.826 138.019 238.394 138.007 238.136 137.733L222.487 121.138C222.226 120.86 222.238 120.429 222.512 120.171Z" fill="black"/>
<g opacity="0.2">
<path d="M281.712 174.037L280.431 175.245C281.751 174.001 283.446 173.411 285.13 173.46C286.806 173.509 288.467 174.202 289.712 175.522C292.197 178.157 292.079 182.31 289.44 184.798L290.721 183.59C293.36 181.102 293.482 176.945 290.997 174.309C289.753 172.99 288.091 172.297 286.411 172.252C284.731 172.199 283.032 172.793 281.712 174.037Z" fill="black"/>
<path d="M272.994 173.158L271.713 174.366C266.417 179.359 266.172 187.706 271.17 193.006C276.164 198.302 284.51 198.547 289.806 193.553L291.087 192.345C285.791 197.339 277.444 197.093 272.451 191.798C267.453 186.498 267.698 178.151 272.994 173.158Z" fill="black"/>
</g>
<g opacity="0.2">
<path d="M281.712 174.037L280.431 175.245C281.751 174.001 283.446 173.411 285.13 173.46C286.806 173.509 288.467 174.202 289.712 175.522C292.197 178.157 292.079 182.31 289.44 184.798L290.721 183.59C293.36 181.102 293.482 176.945 290.997 174.309C289.753 172.99 288.091 172.297 286.411 172.252C284.731 172.199 283.032 172.793 281.712 174.037Z" fill="black"/>
<path d="M281.712 174.037L280.431 175.245C281.751 174.001 283.446 173.411 285.13 173.46C286.806 173.509 288.467 174.202 289.712 175.522C292.197 178.157 292.079 182.31 289.44 184.798L290.721 183.59C293.36 181.102 293.482 176.945 290.997 174.309C289.753 172.99 288.091 172.297 286.411 172.252C284.731 172.199 283.032 172.793 281.712 174.037Z" fill="black"/>
</g>
<path d="M291.476 174.611L286.748 173.427L287.272 169.969L293.046 171.132L291.476 174.611Z" fill="#B55B52"/>
<path d="M291.946 166.609L293.046 171.132L287.271 169.969C287.271 169.969 287.193 165.918 289.349 165.653L291.946 166.609Z" fill="#B55B52"/>
<path d="M166.219 117.057C165.826 117.057 165.458 117.025 165.115 116.961C164.779 116.889 164.468 116.786 164.183 116.65C163.904 116.507 163.65 116.339 163.422 116.146L163.679 115.6C163.929 115.793 164.176 115.953 164.418 116.082C164.668 116.211 164.94 116.307 165.233 116.371C165.533 116.429 165.862 116.457 166.219 116.457C166.897 116.457 167.405 116.325 167.74 116.061C168.083 115.796 168.255 115.45 168.255 115.021C168.255 114.785 168.201 114.585 168.094 114.421C167.987 114.257 167.815 114.117 167.58 114.003C167.351 113.882 167.047 113.785 166.669 113.714L165.586 113.489C164.908 113.353 164.404 113.124 164.076 112.803C163.747 112.482 163.583 112.053 163.583 111.517C163.583 111.074 163.693 110.688 163.915 110.36C164.143 110.031 164.458 109.778 164.858 109.599C165.265 109.42 165.726 109.331 166.24 109.331C166.583 109.331 166.905 109.367 167.205 109.438C167.512 109.503 167.794 109.606 168.051 109.749C168.308 109.892 168.537 110.067 168.737 110.274L168.48 110.81C168.151 110.503 167.808 110.281 167.451 110.145C167.094 110.003 166.69 109.931 166.24 109.931C165.84 109.931 165.49 109.995 165.19 110.124C164.897 110.253 164.668 110.435 164.504 110.671C164.34 110.906 164.258 111.185 164.258 111.506C164.258 111.878 164.372 112.174 164.601 112.396C164.829 112.617 165.197 112.778 165.704 112.878L166.797 113.103C167.519 113.253 168.055 113.478 168.405 113.778C168.755 114.071 168.93 114.475 168.93 114.989C168.93 115.396 168.819 115.757 168.598 116.071C168.383 116.379 168.073 116.621 167.665 116.8C167.258 116.971 166.776 117.057 166.219 117.057Z" fill="#393939"/>
<path d="M171.774 117.057C171.195 117.057 170.76 116.9 170.467 116.586C170.181 116.271 170.038 115.821 170.038 115.235V112.299H169.009V111.774H170.038V110.167H170.692V111.774H172.374V112.299H170.692V115.15C170.692 115.586 170.781 115.918 170.96 116.146C171.138 116.375 171.435 116.489 171.849 116.489C171.97 116.489 172.088 116.475 172.203 116.446C172.317 116.411 172.417 116.379 172.503 116.35L172.631 116.864C172.553 116.914 172.428 116.957 172.256 116.993C172.085 117.036 171.924 117.057 171.774 117.057Z" fill="#393939"/>
<path d="M172.974 116.971V111.774H173.617V112.996H173.51C173.645 112.574 173.863 112.256 174.163 112.042C174.47 111.828 174.87 111.703 175.363 111.667L175.631 111.646L175.696 112.214L175.235 112.267C174.728 112.317 174.335 112.485 174.056 112.771C173.777 113.057 173.638 113.442 173.638 113.928V116.971H172.974Z" fill="#393939"/>
<path d="M178.406 117.057C177.87 117.057 177.409 116.95 177.024 116.736C176.638 116.521 176.341 116.214 176.134 115.814C175.927 115.414 175.824 114.939 175.824 114.389C175.824 113.846 175.927 113.374 176.134 112.974C176.341 112.567 176.627 112.249 176.992 112.021C177.363 111.792 177.788 111.678 178.267 111.678C178.731 111.678 179.124 111.781 179.445 111.989C179.774 112.189 180.024 112.478 180.196 112.857C180.374 113.228 180.463 113.678 180.463 114.207V114.507H176.295V114.025H180.056L179.885 114.164C179.885 113.55 179.749 113.071 179.478 112.728C179.206 112.378 178.806 112.203 178.277 112.203C177.885 112.203 177.552 112.296 177.281 112.482C177.009 112.66 176.806 112.91 176.67 113.232C176.534 113.546 176.466 113.91 176.466 114.325V114.378C176.466 114.835 176.538 115.225 176.681 115.546C176.831 115.861 177.052 116.1 177.345 116.264C177.638 116.429 177.985 116.511 178.385 116.511C178.706 116.511 179.006 116.461 179.285 116.361C179.57 116.261 179.849 116.093 180.121 115.857L180.378 116.35C180.149 116.564 179.856 116.736 179.499 116.864C179.142 116.993 178.778 117.057 178.406 117.057Z" fill="#393939"/>
<path d="M182.975 117.057C182.625 117.057 182.31 116.989 182.032 116.854C181.76 116.718 181.542 116.532 181.378 116.296C181.221 116.061 181.142 115.796 181.142 115.503C181.142 115.118 181.239 114.814 181.432 114.593C181.624 114.371 181.95 114.217 182.407 114.132C182.864 114.039 183.493 113.992 184.293 113.992H184.754V114.475H184.303C183.825 114.475 183.421 114.489 183.093 114.518C182.771 114.546 182.517 114.6 182.332 114.678C182.146 114.75 182.014 114.85 181.935 114.978C181.864 115.107 181.828 115.264 181.828 115.45C181.828 115.771 181.939 116.032 182.16 116.232C182.382 116.432 182.682 116.532 183.06 116.532C183.368 116.532 183.635 116.461 183.864 116.318C184.1 116.168 184.286 115.964 184.421 115.707C184.557 115.45 184.625 115.157 184.625 114.828V113.607C184.625 113.128 184.528 112.782 184.336 112.567C184.143 112.346 183.836 112.235 183.414 112.235C183.1 112.235 182.796 112.281 182.503 112.374C182.217 112.467 181.921 112.614 181.614 112.814L181.357 112.31C181.542 112.181 181.746 112.071 181.967 111.978C182.196 111.885 182.432 111.814 182.675 111.764C182.925 111.706 183.168 111.678 183.403 111.678C183.825 111.678 184.171 111.749 184.443 111.892C184.721 112.035 184.925 112.249 185.054 112.535C185.189 112.821 185.257 113.189 185.257 113.639V116.971H184.636V115.718H184.743C184.678 115.996 184.564 116.236 184.4 116.436C184.236 116.636 184.032 116.789 183.789 116.896C183.546 117.004 183.275 117.057 182.975 117.057Z" fill="#393939"/>
<path d="M186.537 116.971V109.417H187.191V114.132H187.212L189.773 111.774H190.641L187.673 114.496V114.078L190.899 116.971H190.031L187.212 114.475H187.191V116.971H186.537Z" fill="#393939"/>
<path d="M201.064 109.449V116.971H199.231V113.875H196.381V116.971H194.548V109.449H196.381V112.396H199.231V109.449H201.064Z" fill="#DD1E50"/>
<path d="M205.258 116.971L203.694 114.132H203.255V116.971H201.422V109.449H204.498C205.09 109.449 205.594 109.553 206.008 109.76C206.43 109.967 206.744 110.253 206.951 110.617C207.159 110.974 207.262 111.374 207.262 111.817C207.262 112.317 207.119 112.764 206.834 113.157C206.555 113.55 206.141 113.828 205.591 113.992L207.327 116.971H205.258ZM203.255 112.835H204.39C204.726 112.835 204.976 112.753 205.141 112.589C205.312 112.424 205.398 112.192 205.398 111.892C205.398 111.606 205.312 111.381 205.141 111.217C204.976 111.053 204.726 110.971 204.39 110.971H203.255V112.835Z" fill="#DD1E50"/>
<path d="M153.105 109.209C153.096 108.891 153.393 108.655 153.703 108.728C156.534 109.404 157.826 110.112 157.626 112.107C157.588 112.486 157.132 112.624 156.891 112.33C156.593 111.967 156.397 111.61 156.26 111.197C156.11 110.746 155.778 110.723 155.794 111.199C155.8 111.349 155.81 111.497 155.827 111.637C155.867 111.975 155.636 112.342 155.311 112.444C155.124 112.503 154.968 112.576 154.814 112.667C154.581 112.805 154.277 112.772 154.122 112.55C153.398 111.519 153.145 110.648 153.105 109.209ZM155.024 111.208C154.734 111.208 154.499 111.435 154.499 111.715C154.499 111.995 154.734 112.221 155.024 112.222C155.314 112.222 155.549 111.995 155.549 111.715C155.549 111.435 155.314 111.208 155.024 111.208Z" fill="url(#paint0_linear_8471_22760)"/>
<path d="M161.755 117.034C161.764 117.352 161.466 117.589 161.156 117.515C158.325 116.84 157.032 116.132 157.233 114.136C157.271 113.757 157.727 113.619 157.968 113.913C158.265 114.276 158.462 114.633 158.599 115.046C158.749 115.497 159.081 115.519 159.065 115.044C159.06 114.894 159.049 114.746 159.032 114.606C158.992 114.268 159.223 113.901 159.548 113.799C159.735 113.74 159.891 113.667 160.045 113.576C160.278 113.438 160.581 113.472 160.737 113.693C161.461 114.724 161.714 115.595 161.755 117.034ZM159.751 114.925C160.041 114.925 160.276 114.698 160.276 114.418C160.276 114.138 160.041 113.911 159.751 113.911C159.461 113.911 159.226 114.138 159.226 114.418C159.226 114.698 159.461 114.925 159.751 114.925Z" fill="url(#paint1_linear_8471_22760)"/>
<path d="M157.703 110.318C158.508 109.365 159.64 109.32 161.817 109.558C161.58 112.831 160.583 113.617 157.703 113.148C158.331 112.347 159.052 112.081 160.812 111.839C159.971 111.555 159.412 111.57 158.36 111.712C158.17 110.975 158.016 110.697 157.703 110.318ZM158.842 110.444C158.552 110.445 158.318 110.672 158.317 110.951C158.317 111.231 158.552 111.458 158.842 111.458C159.132 111.458 159.367 111.231 159.367 110.951C159.367 110.671 159.132 110.444 158.842 110.444Z" fill="url(#paint2_linear_8471_22760)"/>
<path d="M157.213 115.937C156.408 116.89 155.276 116.935 153.099 116.697C153.336 113.424 154.334 112.638 157.213 113.106C156.585 113.908 155.865 114.174 154.105 114.416C154.946 114.7 155.505 114.685 156.557 114.543C156.747 115.279 156.9 115.558 157.213 115.937ZM155.9 115.938C156.19 115.938 156.426 115.711 156.426 115.432C156.426 115.152 156.19 114.925 155.9 114.925C155.61 114.925 155.375 115.152 155.375 115.432C155.375 115.712 155.61 115.938 155.9 115.938Z" fill="url(#paint3_linear_8471_22760)"/>
<circle cx="192.696" cy="116.135" r="0.837175" fill="#000080"/>
<defs>
<linearGradient id="paint0_linear_8471_22760" x1="156.783" y1="112.152" x2="152.133" y2="108.452" gradientUnits="userSpaceOnUse">
<stop stop-color="#CF1042"/>
<stop offset="1" stop-color="#E47A2E"/>
</linearGradient>
<linearGradient id="paint1_linear_8471_22760" x1="160.712" y1="117.917" x2="160.053" y2="112.944" gradientUnits="userSpaceOnUse">
<stop stop-color="#34C2E9"/>
<stop offset="1" stop-color="#1356E1"/>
</linearGradient>
<linearGradient id="paint2_linear_8471_22760" x1="161.268" y1="108.386" x2="158.128" y2="113.032" gradientUnits="userSpaceOnUse">
<stop stop-color="#F4F400"/>
<stop offset="1" stop-color="#FFC30B"/>
</linearGradient>
<linearGradient id="paint3_linear_8471_22760" x1="153.642" y1="116.553" x2="156.949" y2="113.204" gradientUnits="userSpaceOnUse">
<stop stop-color="#85DF00"/>
<stop offset="1" stop-color="#007650"/>
</linearGradient>
</defs>
</svg>
