<svg width="272" height="74" viewBox="0 0 272 74" fill="none" xmlns="http://www.w3.org/2000/svg">
<path d="M70.8632 52.6794C69.1465 52.6794 67.5391 52.539 66.0409 52.258C64.5739 51.9459 63.2162 51.4933 61.9677 50.9003C60.7504 50.2761 59.6423 49.5426 58.6436 48.6998L59.7672 46.3121C60.8596 47.1548 61.9364 47.8571 62.9977 48.4189C64.0901 48.9808 65.2762 49.4021 66.5559 49.683C67.8668 49.9327 69.3025 50.0576 70.8632 50.0576C73.8283 50.0576 76.0444 49.4802 77.5114 48.3253C79.0096 47.1704 79.7587 45.6567 79.7587 43.7839C79.7587 42.7539 79.5246 41.88 79.0564 41.1621C78.5882 40.4442 77.8391 39.8356 76.8091 39.3362C75.8103 38.8056 74.4838 38.3842 72.8295 38.0721L68.1009 37.0889C65.1357 36.4959 62.9352 35.4971 61.4995 34.0925C60.0637 32.688 59.3458 30.8152 59.3458 28.4743C59.3458 26.5391 59.8296 24.8537 60.7972 23.4179C61.796 21.9821 63.1693 20.8741 64.9172 20.0938C66.6963 19.3135 68.7095 18.9233 70.9568 18.9233C72.455 18.9233 73.8595 19.0794 75.1705 19.3915C76.5126 19.6724 77.7455 20.125 78.8691 20.7493C79.9927 21.3735 80.9915 22.1382 81.8655 23.0434L80.7418 25.3843C79.3061 24.0422 77.8079 23.0746 76.2473 22.4815C74.6867 21.8573 72.9232 21.5452 70.9568 21.5452C69.2089 21.5452 67.6795 21.8261 66.3686 22.3879C65.0889 22.9497 64.0901 23.7456 63.3722 24.7756C62.6543 25.8056 62.2954 27.0229 62.2954 28.4275C62.2954 30.0505 62.7948 31.3458 63.7936 32.3134C64.7924 33.281 66.3998 33.9833 68.6159 34.4202L73.3914 35.4034C76.5438 36.0589 78.8847 37.0421 80.4141 38.353C81.9435 39.6327 82.7082 41.3962 82.7082 43.6435C82.7082 45.4226 82.2244 46.9988 81.2568 48.3721C80.3205 49.7142 78.9627 50.7755 77.1836 51.5558C75.4045 52.3049 73.2977 52.6794 70.8632 52.6794Z" fill="#393939"/>
<path d="M95.1348 52.6794C92.6066 52.6794 90.7027 51.9927 89.423 50.6194C88.1745 49.2461 87.5503 47.2797 87.5503 44.7203V31.892H83.0557V29.5979H87.5503V22.5752H90.4062V29.5979H97.7567V31.892H90.4062V44.3457C90.4062 46.2497 90.7963 47.7011 91.5766 48.6998C92.3569 49.6986 93.6523 50.198 95.4626 50.198C95.9932 50.198 96.5082 50.1356 97.0076 50.0108C97.507 49.8547 97.9439 49.7142 98.3185 49.5894L98.8803 51.8367C98.537 52.0552 97.9908 52.2424 97.2417 52.3985C96.4926 52.5858 95.7903 52.6794 95.1348 52.6794Z" fill="#393939"/>
<path d="M100.377 52.3049V29.5979H103.186V34.9352H102.718C103.311 33.0937 104.263 31.7048 105.574 30.7684C106.916 29.832 108.664 29.2858 110.817 29.1298L111.988 29.0361L112.269 31.5175L110.255 31.7516C108.039 31.9701 106.323 32.7036 105.105 33.952C103.888 35.2005 103.279 36.886 103.279 39.0084V52.3049H100.377Z" fill="#393939"/>
<path d="M124.111 52.6794C121.77 52.6794 119.757 52.2112 118.071 51.2749C116.386 50.3385 115.09 48.9964 114.185 47.2485C113.28 45.5006 112.827 43.425 112.827 41.0216C112.827 38.6495 113.28 36.5895 114.185 34.8416C115.09 33.0625 116.339 31.6736 117.931 30.6748C119.554 29.676 121.411 29.1766 123.502 29.1766C125.531 29.1766 127.248 29.6292 128.652 30.5343C130.088 31.4082 131.18 32.6723 131.929 34.3266C132.71 35.9496 133.1 37.916 133.1 40.2257V41.5366H114.887V39.4298H131.321L130.572 40.0384C130.572 37.3542 129.979 35.263 128.793 33.7648C127.606 32.2354 125.859 31.4707 123.549 31.4707C121.832 31.4707 120.381 31.8764 119.195 32.688C118.009 33.4683 117.119 34.5607 116.526 35.9652C115.933 37.3386 115.637 38.9304 115.637 40.7407V40.9748C115.637 42.9724 115.949 44.6735 116.573 46.078C117.228 47.4514 118.196 48.497 119.476 49.2149C120.755 49.9327 122.269 50.2917 124.017 50.2917C125.422 50.2917 126.733 50.0732 127.95 49.6362C129.198 49.1992 130.416 48.4658 131.602 47.4358L132.725 49.5894C131.726 50.5258 130.447 51.2749 128.886 51.8367C127.326 52.3985 125.734 52.6794 124.111 52.6794Z" fill="#393939"/>
<path d="M144.071 52.6794C142.542 52.6794 141.169 52.3829 139.951 51.7899C138.765 51.1968 137.813 50.3853 137.095 49.3553C136.409 48.3253 136.065 47.1704 136.065 45.8907C136.065 44.2053 136.487 42.8788 137.33 41.9112C138.172 40.9436 139.592 40.2725 141.59 39.898C143.588 39.4922 146.334 39.2893 149.83 39.2893H151.843V41.3962H149.877C147.786 41.3962 146.022 41.4586 144.586 41.5834C143.182 41.7083 142.074 41.9424 141.262 42.2857C140.451 42.5978 139.873 43.0348 139.53 43.5966C139.218 44.1585 139.062 44.8451 139.062 45.6567C139.062 47.0612 139.546 48.2005 140.513 49.0744C141.481 49.9483 142.792 50.3853 144.446 50.3853C145.788 50.3853 146.959 50.0732 147.957 49.4489C148.987 48.7935 149.799 47.9039 150.392 46.7803C150.985 45.6567 151.281 44.3769 151.281 42.9412V37.6039C151.281 35.5127 150.86 33.9989 150.017 33.0625C149.175 32.0949 147.832 31.6111 145.991 31.6111C144.618 31.6111 143.291 31.814 142.011 32.2198C140.763 32.6255 139.468 33.2654 138.125 34.1393L137.002 31.9389C137.813 31.377 138.703 30.8932 139.67 30.4875C140.669 30.0817 141.699 29.7696 142.76 29.5511C143.853 29.3014 144.914 29.1766 145.944 29.1766C147.786 29.1766 149.299 29.4887 150.486 30.1129C151.703 30.7372 152.592 31.6736 153.154 32.922C153.747 34.1705 154.044 35.778 154.044 37.7443V52.3049H151.328V46.8271H151.796C151.516 48.0444 151.016 49.09 150.298 49.9639C149.58 50.8379 148.691 51.509 147.63 51.9771C146.568 52.4453 145.382 52.6794 144.071 52.6794Z" fill="#393939"/>
<path d="M159.637 52.3049V19.2979H162.493V39.898H162.586L173.776 29.5979H177.568L164.599 41.4898V39.6639L178.692 52.3049H174.899L162.586 41.3962H162.493V52.3049H159.637Z" fill="#393939"/>
<path d="M223.104 19.4383V52.3049H215.098V38.7743H202.644V52.3049H194.638V19.4383H202.644V32.3134H215.098V19.4383H223.104Z" fill="#DD1E50"/>
<path d="M241.431 52.3049L234.595 39.898H232.676V52.3049H224.67V19.4383H238.107C240.697 19.4383 242.898 19.8909 244.708 20.7961C246.55 21.7012 247.923 22.9497 248.828 24.5415C249.733 26.1022 250.186 27.8501 250.186 29.7852C250.186 31.9701 249.562 33.9208 248.313 35.6375C247.096 37.3542 245.286 38.5715 242.882 39.2893L250.467 52.3049H241.431ZM232.676 34.233H237.639C239.106 34.233 240.198 33.874 240.916 33.1561C241.665 32.4383 242.039 31.4239 242.039 30.1129C242.039 28.8645 241.665 27.8813 240.916 27.1634C240.198 26.4455 239.106 26.0866 237.639 26.0866H232.676V34.233Z" fill="#DD1E50"/>
<path d="M13.5342 16.304C13.5344 15.9856 13.8364 15.7495 14.147 15.8195C29.2452 19.2229 35.3795 22.4303 32.8545 33.8625C32.7725 34.2338 32.317 34.3738 32.0439 34.1092C28.2598 30.4426 27.0143 27.4831 26.3293 22.2946C26.267 21.8231 25.7708 21.7444 25.665 22.2081C25.1038 24.6694 25.1852 29.0085 25.909 31.281C26.0124 31.6056 25.8089 31.9676 25.4722 32.0195C22.7418 32.441 21.4372 33.1315 19.6669 34.4055C19.4472 34.5635 19.14 34.5204 18.9756 34.3055C14.6859 28.6963 13.5285 24.5339 13.5342 16.304ZM21.9508 27.1253C20.6836 27.1254 19.6559 28.117 19.6559 29.3401C19.656 30.5631 20.6837 31.5548 21.9508 31.555C23.2181 31.555 24.2456 30.5632 24.2457 29.3401C24.2457 28.117 23.2181 27.1253 21.9508 27.1253Z" fill="url(#paint0_linear_8471_22738)"/>
<path d="M51.3818 54.6658C51.3816 54.9841 51.0796 55.2202 50.769 55.1502C35.6709 51.7469 29.5366 48.5392 32.0615 37.1072C32.1435 36.7359 32.599 36.5959 32.8721 36.8606C36.6562 40.5271 37.9017 43.4866 38.5867 48.6751C38.649 49.1466 39.1453 49.2254 39.251 48.7616C39.8123 46.3001 39.731 41.9603 39.0071 39.6878C38.9037 39.3632 39.1072 39.0012 39.4439 38.9492C42.1745 38.5279 43.4796 37.8382 45.2501 36.5643C45.4698 36.4062 45.777 36.4493 45.9414 36.6643C50.2308 42.2733 51.3876 46.436 51.3818 54.6658ZM42.6009 43.3659C43.8683 43.3659 44.8959 42.3742 44.8959 41.1511C44.8956 39.9282 43.8681 38.9372 42.6009 38.9372C41.3338 38.9373 40.3063 39.9282 40.306 41.1511C40.306 42.3742 41.3337 43.3659 42.6009 43.3659Z" fill="url(#paint1_linear_8471_22738)"/>
<path d="M33.6514 23.2379C37.1677 19.0714 42.1141 18.8743 51.627 19.9147C50.5916 34.216 46.2321 37.6486 33.6514 35.6031C36.3965 32.1007 39.542 30.9408 47.2285 29.8815C43.5542 28.6424 41.1166 28.7077 36.5195 29.3278C35.688 26.1089 35.0203 24.8931 33.6514 23.2379ZM38.624 23.7906C37.3569 23.7908 36.3301 24.7825 36.3301 26.0055C36.3301 27.2285 37.3569 28.2201 38.624 28.2203C39.8914 28.2203 40.9189 27.2286 40.9189 26.0055C40.9189 24.7824 39.8913 23.7906 38.624 23.7906Z" fill="url(#paint2_linear_8471_22738)"/>
<path d="M31.5107 47.7836C27.9944 51.9501 23.048 52.1471 13.5352 51.1068C14.5705 36.8055 18.9301 33.3729 31.5107 35.4183C28.7656 38.9208 25.6201 40.0807 17.9336 41.14C21.6079 42.3791 24.0455 42.3138 28.6426 41.6937C29.4741 44.9126 30.1419 46.1284 31.5107 47.7836ZM25.7734 47.7953C27.0408 47.7953 28.0684 46.8036 28.0684 45.5805C28.0682 44.3575 27.0406 43.3666 25.7734 43.3666C24.5064 43.3668 23.4797 44.3576 23.4795 45.5805C23.4795 46.8034 24.5063 47.7951 25.7734 47.7953Z" fill="url(#paint3_linear_8471_22738)"/>
<circle cx="186.542" cy="48.6474" r="3.65769" fill="#000080"/>
<defs>
<linearGradient id="paint0_linear_8471_22738" x1="29.6283" y1="31.7306" x2="8.39336" y2="15.7713" gradientUnits="userSpaceOnUse">
<stop stop-color="#CF1042"/>
<stop offset="1" stop-color="#E47A2E"/>
</linearGradient>
<linearGradient id="paint1_linear_8471_22738" x1="46.8182" y1="56.9617" x2="43.5943" y2="33.9716" gradientUnits="userSpaceOnUse">
<stop stop-color="#34C2E9"/>
<stop offset="1" stop-color="#1356E1"/>
</linearGradient>
<linearGradient id="paint2_linear_8471_22738" x1="49.2247" y1="14.7942" x2="35.5083" y2="35.0947" gradientUnits="userSpaceOnUse">
<stop stop-color="#F4F400"/>
<stop offset="1" stop-color="#FFC30B"/>
</linearGradient>
<linearGradient id="paint3_linear_8471_22738" x1="15.9102" y1="50.4764" x2="30.3583" y2="35.8453" gradientUnits="userSpaceOnUse">
<stop stop-color="#85DF00"/>
<stop offset="1" stop-color="#007650"/>
</linearGradient>
</defs>
</svg>
